<svg width="55" height="55" viewBox="0 0 55 55" fill="none" xmlns="http://www.w3.org/2000/svg">
<path d="M46.2 7.33333C41.25 2.75 34.7417 0 27.5 0C20.2583 0 13.75 2.75 8.8 7.33333H46.2ZM8.8 47.6667C13.75 52.25 20.2583 55 27.5 55C34.7417 55 41.25 52.25 46.2 47.6667H8.8Z" fill="#ED4C5C"/>
<path d="M0 27.5C0 31.4417 0.825 35.1083 2.29167 38.5H52.7083C54.175 35.1083 55 31.4417 55 27.5C55 23.5583 54.175 19.8917 52.7083 16.5H2.29167C0.825 19.8917 0 23.5583 0 27.5Z" fill="#2A5F9E"/>
<path d="M8.8 47.6667H46.1083C48.8583 45.1 51.15 41.9833 52.6167 38.5H2.2C3.85 41.9833 6.05 45.1 8.8 47.6667ZM46.2 7.33333H8.8C6.05 9.9 3.75833 13.0167 2.29167 16.5H52.7083C51.15 13.0167 48.95 9.9 46.2 7.33333Z" fill="#F9F9F9"/>
</svg>
