<svg width="55" height="55" viewBox="0 0 55 55" fill="none" xmlns="http://www.w3.org/2000/svg">
<path d="M27.5 55C42.7167 55 55 42.7167 55 27.5H0C0 42.7167 12.2833 55 27.5 55Z" fill="#F9F9F9"/>
<path d="M27.5 0C12.2833 0 0 12.2833 0 27.5H55C55 12.2833 42.7167 0 27.5 0Z" fill="#ED4C5C"/>
<path d="M17.6 14.2083L16.5 13.2917H17.875L18.3333 11.9167L18.7917 13.2917H20.1667L19.0667 14.2083L19.4333 15.5833L18.3333 14.7583L17.2333 15.5833L17.6 14.2083ZM24.9333 14.2083L23.8333 13.2917H25.2083L25.6667 11.9167L26.125 13.2917H27.5L26.4 14.2083L26.7667 15.5833L25.6667 14.7583L24.5667 15.5833L24.9333 14.2083ZM18.5167 18.7917L17.4167 17.875H18.7917L19.25 16.5L19.7083 17.875H21.0833L19.9833 18.7917L20.35 20.1667L19.25 19.3417L18.15 20.1667L18.5167 18.7917ZM24.0167 18.7917L22.9167 17.875H24.2917L24.75 16.5L25.2083 17.875H26.5833L25.4833 18.7917L25.85 20.1667L24.75 19.3417L23.65 20.1667L24.0167 18.7917ZM21.2667 11.4583L20.1667 10.5417H21.5417L22 9.16667L22.4583 10.5417H23.8333L22.7333 11.4583L23.1 12.8333L22 12.0083L20.9 12.8333L21.2667 11.4583Z" fill="#F9F9F9"/>
<path d="M20.5333 23.8333C16.1333 23.8333 12.65 20.075 12.65 15.4917C12.65 10.9083 16.225 7.15 20.5333 7.15C20.9 7.15 21.175 7.15 21.45 7.24167C20.35 6.69167 19.1583 6.41667 17.875 6.41667C13.1083 6.41667 9.16667 10.5417 9.16667 15.5833C9.16667 20.625 13.1083 24.75 17.875 24.75C19.3417 24.75 20.8083 24.3833 22 23.65C21.5417 23.7417 21.0833 23.8333 20.5333 23.8333Z" fill="#F9F9F9"/>
</svg>
