<svg width="55" height="55" viewBox="0 0 55 55" fill="none" xmlns="http://www.w3.org/2000/svg">
<path d="M27.5 55C42.6878 55 55 42.6878 55 27.5C55 12.3122 42.6878 0 27.5 0C12.3122 0 0 12.3122 0 27.5C0 42.6878 12.3122 55 27.5 55Z" fill="#ED4C5C"/>
<path d="M18.3333 24.2L25.6667 29.3333L22.9167 20.9L30.25 15.5833H21.175L18.3333 7.33333L15.5833 15.5833H6.41667L13.75 20.9L11 29.3333L18.3333 24.2ZM30.525 30.525L28.4167 30.9833L30.4333 31.8083V33.9167L31.8083 32.3583L33.825 33.0917L32.6333 31.35L33.9167 29.7L31.8083 30.1583L30.525 28.4167V30.525ZM33.6417 24.2917L32.0833 25.6667L34.1917 25.4833L35.1083 27.5L35.475 25.3917L37.5833 25.2083L35.75 24.1083L36.2083 22L34.65 23.375L32.8167 22.275L33.6417 24.2917ZM34.1917 17.1417L34.8333 19.25L35.475 17.2333H37.5833L35.9333 15.95L36.575 13.8417L34.8333 15.125L33.1833 13.75L33.825 15.8583L32.0833 17.05L34.1917 17.1417ZM30.525 9.80833V11.9167L31.8083 10.175L33.9167 10.6333L32.6333 8.98333L33.825 7.24167L31.8083 8.06667L30.4333 6.41667V8.525L28.4167 9.35L30.525 9.80833Z" fill="#FFE62E"/>
</svg>
