<svg width="55" height="55" viewBox="0 0 55 55" fill="none" xmlns="http://www.w3.org/2000/svg">
<path d="M27.5 55C42.6878 55 55 42.6878 55 27.5C55 12.3122 42.6878 0 27.5 0C12.3122 0 0 12.3122 0 27.5C0 42.6878 12.3122 55 27.5 55Z" fill="#ED4C5C"/>
<path d="M36.025 33.9167L36.1167 28.9667L31.1667 27.5L36.1167 26.0333L36.025 21.0833L39.05 25.025L44 23.5583L40.975 27.5L44 31.4417L39.05 29.975L36.025 33.9167Z" fill="white"/>
<path d="M28.6 38.5C22.55 38.5 17.6917 33.55 17.6917 27.5C17.6917 21.45 22.55 16.5 28.6 16.5C30.8917 16.5 33 17.2333 34.8333 18.425C32.3583 15.5833 28.6917 13.75 24.5667 13.75C17.05 13.75 11 19.8917 11 27.5C11 35.1083 17.05 41.25 24.5667 41.25C28.6917 41.25 32.3583 39.4167 34.8333 36.575C33.0917 37.7667 30.9833 38.5 28.6 38.5Z" fill="white"/>
</svg>
