<svg width="55" height="55" viewBox="0 0 55 55" fill="none" xmlns="http://www.w3.org/2000/svg">
<path d="M27.4135 54.9998C12.286 54.9432 0 42.6679 0 27.6155C0 12.2737 12.3451 -0.114411 27.588 0.000797105C42.7717 0.0595939 55.1168 12.5631 54.9992 27.6746C54.9992 42.8421 42.6564 55.0588 27.4135 54.9998ZM30.1958 34.0429C30.3113 33.9841 30.4268 33.9841 30.5445 33.9275C29.6163 32.6543 28.6904 31.3811 27.821 30.1056C27.6467 29.8749 27.5313 29.5855 27.4158 29.296C27.7056 29.2372 27.9954 29.0654 28.2851 29.0654C28.6904 29.0654 29.2133 29.4136 29.5031 29.2395C30.3136 28.6017 31.1263 27.9663 31.647 27.0979C31.8779 26.7496 31.5882 25.94 31.3572 25.3611C31.2984 25.0716 30.8931 24.8975 30.6622 24.7233C31.0109 24.6645 31.3007 24.3751 31.5905 24.4339C35.1832 25.2434 37.1551 22.5229 39.5298 20.8449C40.0505 20.4966 40.458 19.3387 40.2837 18.7033C40.1093 18.1244 39.1834 17.7761 38.4861 17.4301C38.0809 17.1994 37.5013 17.256 37.0961 16.9665C36.7475 16.7358 36.5754 16.2134 36.2857 15.8086C36.8064 15.6345 37.2704 15.2885 37.7345 15.345C38.8348 15.4604 39.9373 15.8652 41.0375 15.9828C41.3273 16.0416 41.676 15.578 42.0812 15.345C40.9221 14.1283 41.7326 13.1446 42.3121 12.0456C42.4864 11.7561 42.2533 11.003 42.0223 10.8289C40.6889 9.72981 39.24 8.8614 37.9655 7.76003C37.4448 7.35523 37.327 6.54334 36.9807 5.9079C37.5602 5.79256 38.0809 5.67723 38.6605 5.55963C39.2989 5.4443 39.8785 5.32896 40.5146 5.15483C40.0505 4.80656 39.7041 4.28642 39.1811 4.05577C29.3287 -0.980512 16.6376 1.10227 8.98517 8.97674C8.63654 9.325 8.40562 9.78632 8.05696 10.1934C8.57765 10.2522 9.10062 10.2522 9.56473 10.3676C9.96996 10.4264 10.3752 10.5417 10.7827 10.5982C10.6673 11.0618 10.6084 11.5255 10.3775 11.9303C9.56703 13.0881 8.6977 14.246 7.88493 15.3451C7.65402 15.6345 7.30538 15.8652 7.0156 16.1546C6.78468 15.8652 6.55151 15.5169 6.37717 15.2274C6.08739 14.7073 5.85647 14.1284 5.56672 13.6647C5.10262 14.1283 4.58194 14.5332 4.23328 15.0533C1.50983 20.0896 0.640501 25.4151 1.27662 31.0331C1.39208 32.0168 1.79732 33.0005 2.0305 33.9278C2.84095 33.29 3.71029 32.7111 4.28984 31.9603C4.63848 31.612 4.63848 30.8613 4.57962 30.2823C4.52076 30.1082 3.76917 30.0516 3.30506 29.934C3.01528 29.8753 2.72551 29.8187 2.43573 29.7599C2.55119 29.4704 2.66665 29.1222 2.84097 28.8915C3.07188 28.6608 3.42052 28.5432 3.65141 28.2538C4.57963 27.3265 7.12874 26.6911 4.28985 24.9543C4.05894 24.8389 4.52077 23.6811 4.63849 22.9868C5.10259 23.2763 5.5667 23.507 5.91305 23.8552C6.7235 24.493 7.42082 25.5332 8.34671 25.8815C9.73672 26.4604 10.5495 27.3288 10.6649 28.7762C10.8392 31.4967 12.9243 33.0594 14.432 34.9141C14.5475 35.0882 15.4168 34.9729 15.4757 34.8553C15.7066 34.2175 16.1707 33.2926 15.9398 32.7137C14.2011 28.8918 15.5912 26.75 19.2428 25.3027C20.343 24.8979 20.7506 24.6649 21.0969 25.9405C21.2712 26.5194 21.9074 27.5031 22.1971 27.4466C24.5742 26.8089 24.4565 28.6633 24.9795 29.993C25.0949 30.2825 25.3281 30.6308 25.559 30.8026C27.2388 31.9582 28.7466 32.9442 30.1955 34.0433L30.1958 34.0429ZM45.2643 38.7897C44.4538 39.1945 43.6411 39.3098 43.2947 39.8322C42.4843 41.0489 41.3817 41.5102 39.9328 41.3949C39.4121 41.3361 38.7737 41.6256 38.4251 41.915C36.5709 44.0001 34.7168 46.0829 33.0347 48.2833C32.745 48.6316 32.745 49.5 32.9759 50.0201C33.0913 50.3096 33.9041 50.3096 34.4248 50.3684C35.0632 50.3684 35.8148 50.1377 36.4532 50.1943C39.6408 50.5425 42.5385 49.9636 44.7976 47.4737C45.7258 46.4312 46.6517 45.4475 47.6954 44.5791C49.7827 42.9011 47.6365 41.6255 47.1747 40.2958C47.0027 39.6016 45.9593 39.3121 45.2643 38.7897ZM34.7732 38.4437C35.3527 38.213 35.8734 38.213 35.9912 37.9801C36.6862 36.4739 37.6144 34.8547 37.9607 33.2332C38.135 32.4237 37.2068 31.7271 36.1066 32.5955C35.0629 33.4051 33.8473 33.984 32.7447 34.7371C32.5138 34.9112 32.1063 35.3749 32.224 35.4314C32.9757 36.4739 33.9627 37.5165 34.7732 38.4437ZM26.0207 33.4639C25.9619 33.5227 25.9053 33.638 25.7898 33.6946C26.3694 34.9113 26.89 36.241 27.6439 37.2835C28.0492 37.9213 28.8619 38.3826 29.6135 38.6155C29.9621 38.7309 30.5417 38.2673 30.888 37.9778C31.0035 37.8624 30.9469 37.1682 30.6571 36.994C29.2082 35.7796 27.5873 34.6218 26.0207 33.4639ZM41.7278 19.5694C41.9587 19.6282 42.0765 19.8001 42.3074 19.8589C43.6974 18.3527 45.6104 17.1383 45.3206 14.5896C45.2617 14.1848 44.9154 13.78 44.6822 13.3729C44.5078 13.7212 44.3335 14.126 44.1615 14.472C43.8128 15.1097 43.523 15.804 43.2333 16.4394C42.7126 17.4842 42.2486 18.5269 41.7278 19.5694ZM43.1767 36.589C44.1049 36.8785 44.741 37.2832 45.3795 37.1679C46.0179 37.0526 46.5386 36.4737 47.0027 35.9512C47.2336 35.7206 47.0616 35.257 47.0616 34.8522C46.4231 34.911 45.787 34.911 45.2074 35.2004C44.5668 35.5487 43.9872 36.0689 43.1767 36.589ZM32.6294 39.5425C34.4835 41.164 36.5708 40.1802 38.5403 40.2367C38.5991 40.2367 38.7712 39.8885 38.8889 39.6578C38.5991 39.5425 38.3094 39.3096 37.9607 39.3096C36.222 39.3683 34.5424 39.4837 32.6294 39.5425ZM40.8585 34.5062C40.4533 34.6215 39.6994 34.7369 39.5251 35.0263C39.1787 35.7794 39.1198 36.6478 39.0044 37.5162C39.0044 37.6316 39.4096 37.9798 39.5251 37.921C40.0457 37.6316 40.7996 37.3421 40.9739 36.8785C41.1483 36.1842 40.9174 35.3746 40.8585 34.5062Z" fill="white"/>
</svg>
