<svg width="55" height="55" viewBox="0 0 55 55" fill="none" xmlns="http://www.w3.org/2000/svg">
<path d="M49.5 11H27.5V16.5H52.7083C51.8833 14.575 50.7833 12.65 49.5 11Z" fill="#ED4C5C"/>
<path d="M54.45 33C54.8167 31.2583 55 29.425 55 27.5H0C0 29.425 0.183333 31.2583 0.55 33H54.45Z" fill="#F9F9F9"/>
<path d="M27.5 0V5.5H44C39.4167 2.01667 33.7333 0 27.5 0Z" fill="#ED4C5C"/>
<path d="M27.5 11H49.5C47.9417 8.89167 46.1083 7.05833 44 5.5H27.5V11ZM52.7083 16.5H27.5V22H54.45C54.0833 20.075 53.4417 18.2417 52.7083 16.5Z" fill="#F9F9F9"/>
<path d="M27.5 22L27.5001 27.5H55C55 25.575 54.8167 23.7417 54.45 22H27.5ZM2.29176 38.5H52.7084C53.4418 36.7583 54.0833 34.925 54.45 33H0.55C0.916667 34.925 1.55842 36.7583 2.29176 38.5Z" fill="#ED4C5C"/>
<path d="M5.5 44H49.5C50.7833 42.35 51.8834 40.425 52.7084 38.5H2.29176C3.11676 40.425 4.21667 42.35 5.5 44Z" fill="#F9F9F9"/>
<path d="M5.5 44C7.05833 46.1083 8.89167 47.9417 11 49.5H44C46.1083 47.9417 47.9417 46.1083 49.5 44H5.5Z" fill="#ED4C5C"/>
<path d="M11 49.5C15.5833 52.9833 21.2667 55 27.5 55C33.7333 55 39.4167 52.9833 44 49.5H11Z" fill="#F9F9F9"/>
<path d="M27.5 0C12.2833 0 0 12.2833 0 27.5H27.5001L27.5 0Z" fill="#2A5F9E"/>
<path d="M16.4083 21.6333C13.6583 21.6333 11.3667 19.3417 11.3667 16.5C11.3667 13.6583 13.6583 11.3667 16.4083 11.3667C17.5083 11.3667 18.425 11.7333 19.25 12.2833C18.0583 10.9083 16.4083 10.0833 14.4833 10.0833C11 10.0833 8.25 12.925 8.25 16.5C8.25 20.075 11.0917 22.9167 14.4833 22.9167C16.4083 22.9167 18.0583 22.0917 19.25 20.7167C18.425 21.2667 17.4167 21.6333 16.4083 21.6333ZM22 15.4L22.6417 13.75L22.4583 15.4917L23.7417 14.3L22.825 15.8583L24.475 15.3083L23.0083 16.225L24.75 16.5L23.0083 16.775L24.475 17.6917L22.825 17.1417L23.7417 18.7L22.4583 17.5083L22.6417 19.25L22 17.6L21.3583 19.25L21.5417 17.5083L20.2583 18.7L21.175 17.1417L19.525 17.6917L20.9917 16.775L19.25 16.5L20.9917 16.225L19.525 15.3083L21.175 15.8583L20.2583 14.3L21.5417 15.4917L21.3583 13.75L22 15.4Z" fill="#FFE62E"/>
</svg>
