<svg width="459" height="390" viewBox="0 0 459 390" fill="none" xmlns="http://www.w3.org/2000/svg"><g opacity="0.4"><path d="M8.01502 158.48C18.855 176.33 38.085 186.96 55.835 197.98C73.585 208.99 91.745 222.63 97.745 242.63C106.375 271.39 86.905 303.39 96.755 331.76C105.315 356.43 134.635 369.31 160.545 365.97C186.445 362.63 208.985 346.56 227.685 328.32C246.385 310.08 262.485 289.18 282.505 272.41C311.365 248.23 346.885 233.8 380.845 217.54C405.835 205.58 431.345 191.49 446.355 168.21C457.865 150.36 462.055 127.66 456.455 107.17C450.865 86.6801 435.225 68.9101 415.165 61.9001C384.085 51.0301 350.345 66.1501 321.785 82.5201C293.215 98.8901 262.755 117.57 230.035 113.99C197.255 110.4 171.235 85.3501 140.485 73.4301C106.855 60.4001 65.775 66.3501 32.015 77.2301C0.275026 87.4601 -8.15498 131.85 8.02502 158.48H8.01502Z" fill="#969696"/><path d="M383.165 41.6701C394.465 43.2701 405.775 44.8701 417.075 46.4701C420.805 47.0001 424.755 47.5001 428.205 45.9801C434.595 43.1701 436.355 34.2801 433.485 27.9101C430.615 21.5501 424.525 17.2901 418.455 13.8401C410.535 9.34008 402.015 5.61008 392.985 4.35008C383.955 3.09008 374.335 4.49008 366.755 9.56008C361.095 13.3501 351.835 24.3301 355.495 31.7701C359.115 39.1301 376.315 40.6901 383.165 41.6601V41.6701Z" fill="#969696"/></g><path d="M96.0858 49.28L95.8558 49.33L95.6858 48.56L95.9058 48.51C97.6558 48.12 99.3558 47.55 100.956 46.81L101.306 47.53C99.6458 48.29 97.8958 48.88 96.0858 49.29V49.28ZM90.1258 49.91C88.2058 49.89 86.2758 49.66 84.4058 49.22L84.5958 48.45C86.4058 48.88 88.2658 49.1 90.1258 49.12V49.91ZM106.206 44.56L105.706 43.94C107.166 42.82 108.496 41.53 109.666 40.11L110.296 40.61C109.086 42.08 107.716 43.41 106.206 44.56ZM78.9958 47.29C77.2758 46.45 75.6458 45.42 74.1658 44.23L74.6758 43.62C76.1158 44.77 77.6858 45.77 79.3558 46.58L78.9958 47.29ZM113.376 35.86L112.646 35.51C113.466 33.87 114.086 32.15 114.506 30.38L115.296 30.56C114.866 32.39 114.216 34.17 113.376 35.86ZM70.1458 40.21C68.9658 38.72 67.9658 37.11 67.1658 35.4L67.9058 35.07C68.6858 36.72 69.6558 38.29 70.7958 39.73L70.1558 40.21H70.1458ZM115.956 24.98H115.146C115.146 23.17 114.936 21.35 114.516 19.57L115.306 19.39C115.736 21.23 115.956 23.11 115.956 24.98ZM66.1558 29.9L65.3658 30.06C64.9658 28.22 64.7858 26.33 64.8258 24.46H65.6358C65.6058 26.28 65.7758 28.11 66.1658 29.89L66.1558 29.9ZM113.056 15.24C112.306 13.58 111.366 11.99 110.256 10.53L110.906 10.06C112.056 11.57 113.026 13.2 113.796 14.92L113.056 15.24ZM66.3658 19.08L65.5758 18.89C66.0458 17.07 66.7258 15.3 67.5958 13.63L68.3158 13.99C67.4658 15.61 66.8058 17.33 66.3558 19.09L66.3658 19.08ZM106.446 6.56C105.026 5.38 103.476 4.36 101.826 3.52L102.206 2.82C103.906 3.69 105.516 4.74 106.986 5.96L106.456 6.56H106.446ZM71.4058 9.44L70.7858 8.93C72.0158 7.49 73.4258 6.18 74.9458 5.05L75.4358 5.68C73.9558 6.78 72.5958 8.04 71.4058 9.44ZM96.6158 1.56C94.8158 1.1 92.9558 0.840001 91.0958 0.790001L91.1158 0C93.0358 0.05 94.9558 0.320001 96.8158 0.790001L96.6058 1.56H96.6158ZM80.2258 2.91L79.8958 2.19C81.4258 1.52 83.0358 0.990001 84.6858 0.630001C84.9258 0.580001 85.1458 0.53 85.3858 0.48L85.5458 1.26C85.3158 1.3 85.0758 1.34 84.8758 1.4C83.2758 1.76 81.7158 2.27 80.2358 2.91H80.2258Z" fill="#2E363D"/><path d="M124.405 31.58C125.355 35.63 122.755 39.67 118.605 40.59C114.455 41.52 110.315 38.98 109.375 34.93C108.425 30.88 111.025 26.84 115.175 25.92C119.325 24.99 123.465 27.53 124.405 31.58Z" fill="#2E363D"/><path d="M379.376 77.8601C379.376 80.9201 376.836 83.4101 373.696 83.4101C370.556 83.4101 368.016 80.9301 368.016 77.8601C368.016 74.7901 370.556 72.3101 373.696 72.3101C376.836 72.3101 379.376 74.7901 379.376 77.8601Z" fill="#2E363D"/><path d="M192.035 67.67C195.399 67.67 198.125 65.0106 198.125 61.73C198.125 58.4495 195.399 55.79 192.035 55.79C188.672 55.79 185.945 58.4495 185.945 61.73C185.945 65.0106 188.672 67.67 192.035 67.67Z" fill="#2E363D"/><path d="M202.985 79.95C202.505 79.95 202.015 79.92 201.545 79.86L201.655 79.07C203.455 79.3 205.325 79.05 207.005 78.35L207.325 79.08C205.955 79.66 204.495 79.95 202.995 79.95H202.985ZM196.185 77.64C194.635 76.44 193.445 74.85 192.745 73.05L193.505 72.77C194.155 74.44 195.255 75.9101 196.695 77.0201L196.195 77.64H196.185ZM211.865 75.5201L211.205 75.05C212.275 73.6 212.935 71.9 213.095 70.12L213.905 70.19C213.735 72.11 213.025 73.9601 211.865 75.5201ZM192.845 69.26H192.035C192.035 67.32 192.575 65.43 193.585 63.78L194.285 64.19C193.345 65.72 192.855 67.47 192.855 69.27L192.845 69.26ZM212.125 64.94C211.325 63.33 210.095 61.96 208.565 60.98L209.015 60.32C210.665 61.38 211.995 62.86 212.855 64.6L212.125 64.95V64.94ZM198.175 60.54L197.785 59.84C199.515 58.93 201.515 58.49 203.465 58.57L203.425 59.36C201.625 59.28 199.765 59.69 198.165 60.53L198.175 60.54Z" fill="#2E363D"/><path d="M386.146 99.08C384.186 98.94 382.306 98.41 380.566 97.51L380.946 96.81C382.586 97.66 384.356 98.16 386.206 98.29L386.146 99.08ZM391.906 98.35L391.636 97.6C393.386 97 394.956 96.08 396.326 94.84L396.876 95.42C395.426 96.73 393.756 97.71 391.906 98.35ZM376.106 93.89C374.876 92.38 373.996 90.68 373.496 88.83L374.276 88.63C374.756 90.38 375.576 91.98 376.736 93.4L376.096 93.89H376.106ZM400.236 90.8L399.496 90.48C400.236 88.83 400.616 87.07 400.616 85.25H401.426C401.426 87.18 401.026 89.05 400.246 90.8H400.236ZM400.536 83.83C400.336 82.03 399.766 80.32 398.846 78.75L399.546 78.36C400.526 80.03 401.136 81.84 401.346 83.75L400.536 83.84V83.83ZM373.976 83.29L373.176 83.17C373.466 81.27 374.156 79.48 375.206 77.86L375.896 78.28C374.906 79.81 374.256 81.5 373.986 83.29H373.976ZM395.206 74.76C393.716 73.68 392.046 72.92 390.236 72.52L390.416 71.75C392.326 72.18 394.106 72.98 395.686 74.13L395.206 74.77V74.76ZM379.696 74.44L379.236 73.79C380.866 72.71 382.676 71.98 384.606 71.63L384.756 72.41C382.936 72.74 381.236 73.42 379.696 74.44Z" fill="#2E363D"/><path d="M241.215 321.33H164.125V347.71C189.545 341.92 215.355 337.11 241.215 332.65V321.33Z" fill="#969696" stroke="#121D30" stroke-width="0.75" stroke-miterlimit="10"/><path d="M164.125 347.71V375.02H241.215V332.65C215.355 337.11 189.555 341.91 164.125 347.71Z" stroke="#121D30" stroke-width="0.75" stroke-miterlimit="10"/><path d="M294.955 388.82H110.385C109.135 388.82 108.855 387.07 110.045 386.68L164.135 368.88H241.225L295.315 386.68C296.505 387.07 296.215 388.82 294.975 388.82H294.955Z" fill="#5C5C5C" stroke="#121D30" stroke-width="0.75" stroke-miterlimit="10"/><path d="M232.465 368.88H239.385" stroke="#121D30" stroke-width="0.75" stroke-miterlimit="10"/><path d="M164.125 368.88H225.355" stroke="#121D30" stroke-width="0.75" stroke-miterlimit="10"/><path d="M353.994 101.14H51.2441C44.0202 101.14 38.1641 106.996 38.1641 114.22V314.17C38.1641 321.394 44.0202 327.25 51.2441 327.25H353.994C361.218 327.25 367.074 321.394 367.074 314.17V114.22C367.074 106.996 361.218 101.14 353.994 101.14Z" fill="#DEDEDE" stroke="#121D30" stroke-width="0.75" stroke-miterlimit="10"/><path d="M38.1738 304V314.18C38.1738 321.4 44.0238 327.26 51.2538 327.26H354.014C361.234 327.26 367.094 321.41 367.094 314.18V304H38.1738Z" fill="#5C5C5C" stroke="#121D30" stroke-width="0.75" stroke-miterlimit="10"/><path d="M353.334 111.37H51.9035C50.7713 111.37 49.8535 112.288 49.8535 113.42V291.73C49.8535 292.862 50.7713 293.78 51.9035 293.78H353.334C354.466 293.78 355.384 292.862 355.384 291.73V113.42C355.384 112.288 354.466 111.37 353.334 111.37Z" fill="white" stroke="#121D30" stroke-width="0.75" stroke-miterlimit="10"/><path d="M207.994 313.95C207.994 316.92 205.594 319.32 202.624 319.32C199.654 319.32 197.254 316.92 197.254 313.95C197.254 310.98 199.654 308.58 202.624 308.58C205.594 308.58 207.994 310.98 207.994 313.95Z" stroke="#121D30" stroke-width="0.75" stroke-miterlimit="10"/><path d="M231.033 141.8L235.973 151.28H286.783C288.243 151.28 289.423 152.46 289.423 153.92V220.65C289.423 222.11 288.243 223.29 286.783 223.29H189.333C187.873 223.29 186.693 222.11 186.693 220.65V143.02C186.693 141.56 187.873 140.38 189.333 140.38H228.693C229.683 140.38 230.583 140.93 231.033 141.8Z" fill="#EDB837"/><path d="M256.473 192.567C258.895 182.391 252.61 172.178 242.434 169.755C232.258 167.333 222.045 173.618 219.622 183.794C217.2 193.97 223.486 204.183 233.661 206.606C243.837 209.028 254.05 202.742 256.473 192.567Z" fill="#2E363D"/><path d="M246.133 195.24L239.093 188.2L246.133 181.16C246.413 180.88 246.413 180.41 246.133 180.13C245.853 179.85 245.383 179.85 245.103 180.13L238.063 187.17L231.023 180.13C230.743 179.85 230.273 179.85 229.993 180.13C229.713 180.41 229.713 180.88 229.993 181.16L237.033 188.2L229.993 195.24C229.713 195.52 229.713 195.99 229.993 196.27C230.273 196.55 230.743 196.55 231.023 196.27L238.063 189.23L245.103 196.27C245.383 196.55 245.853 196.55 246.133 196.27C246.413 195.99 246.413 195.52 246.133 195.24Z" fill="white"/><path d="M115.174 141.8L120.114 151.28H170.924C172.384 151.28 173.564 152.46 173.564 153.92V220.65C173.564 222.11 172.384 223.29 170.924 223.29H73.474C72.014 223.29 70.834 222.11 70.834 220.65V143.02C70.834 141.56 72.014 140.38 73.474 140.38H112.834C113.824 140.38 114.724 140.93 115.174 141.8Z" fill="#969696"/><path d="M140.621 192.577C143.043 182.401 136.758 172.188 126.582 169.766C116.406 167.343 106.193 173.629 103.771 183.805C101.348 193.981 107.634 204.193 117.81 206.616C127.986 209.038 138.199 202.753 140.621 192.577Z" fill="#2E363D"/><path d="M130.274 195.24L123.234 188.2L130.274 181.16C130.554 180.88 130.554 180.41 130.274 180.13C129.994 179.85 129.524 179.85 129.244 180.13L122.204 187.17L115.164 180.13C114.884 179.85 114.414 179.85 114.134 180.13C113.854 180.41 113.854 180.88 114.134 181.16L121.174 188.2L114.134 195.24C113.854 195.52 113.854 195.99 114.134 196.27C114.414 196.55 114.884 196.55 115.164 196.27L122.204 189.23L129.244 196.27C129.524 196.55 129.994 196.55 130.274 196.27C130.554 195.99 130.554 195.52 130.274 195.24Z" fill="white"/><path d="M186.316 320.58H336.736L352.616 153.36H202.196L186.316 320.58Z" fill="#DEDEDE"/><path d="M183.596 320.03H334.016L347.456 148.44H197.036L183.596 320.03Z" fill="#5C5C5C"/><path d="M180.766 314.5H333.426L344.626 142.9H211.536L180.766 314.5Z" fill="#969696"/><path d="M210.195 139.14H184.365V157.26V162.95V320.42H334.785V139.14H210.195Z" fill="#EAEAEA"/><path d="M319.055 137.5C318.985 138.98 319.745 140.22 320.765 140.27C321.785 140.32 322.665 139.16 322.745 137.68C322.815 136.2 322.045 134.96 321.035 134.91C320.015 134.86 319.135 136.02 319.055 137.5Z" fill="#2E363D"/><path opacity="0.53" d="M315.535 137.99C316.075 139.61 317.415 140.62 318.525 140.25C319.635 139.88 320.105 138.27 319.565 136.65C319.025 135.03 317.685 134.02 316.575 134.39C315.465 134.76 314.995 136.37 315.535 137.99Z" fill="#2E363D"/><path d="M312.696 140.78C311.886 143.01 313.616 145.69 316.566 146.77C319.516 147.85 322.566 146.91 323.386 144.68C324.196 142.45 322.466 139.77 319.516 138.69C316.566 137.61 313.516 138.55 312.696 140.78Z" fill="#121D30"/><path d="M309.586 140.42C294.406 138.1 272.116 148.4 274.206 167.06C275.706 180.36 293.826 186.38 299.496 173.32C307.176 155.65 283.346 152.13 271.836 152.94C258.616 153.87 249.956 154.25 234.836 171.65C228.646 178.77 227.096 206.17 242.436 208.03" stroke="#121D30" stroke-width="0.75" stroke-miterlimit="10" stroke-dasharray="5.52 5.52"/><path d="M140.006 141.83C134.856 149.41 143.876 159.23 150.746 162.11C166.616 168.76 177.216 152.51 192.426 154.06C205.486 155.39 213.586 164.2 206.666 178.84C202.376 187.91 181.666 190.52 182.386 177.48" stroke="#121D30" stroke-width="0.75" stroke-miterlimit="10" stroke-dasharray="5.52 5.52"/><path d="M139.347 130.73C138.627 132.03 137.317 132.67 136.427 132.18C135.537 131.69 135.397 130.23 136.117 128.94C136.837 127.65 138.147 127 139.037 127.49C139.927 127.99 140.067 129.44 139.347 130.73Z" fill="#2E363D"/><path opacity="0.53" d="M142.077 133.01C140.767 134.1 139.097 134.25 138.347 133.35C137.597 132.45 138.057 130.83 139.367 129.74C140.677 128.65 142.347 128.5 143.097 129.4C143.847 130.3 143.397 131.92 142.077 133.01Z" fill="#2E363D"/><path d="M143.006 136.88C142.516 139.2 139.636 140.56 136.556 139.92C133.476 139.27 131.386 136.87 131.876 134.54C132.366 132.22 135.256 130.86 138.326 131.5C141.406 132.14 143.496 134.55 143.006 136.88Z" fill="#121D30"/><path d="M361.105 377.67H348.895L353.865 339.93H366.075L361.105 377.67Z" fill="#D28A7B"/><path d="M362.263 377.62H348.523L350.723 359.66L364.333 360.7L362.263 377.62Z" fill="white"/><path d="M363.334 388.82H332.164L332.974 386.04C333.244 385.13 333.644 384.29 334.154 383.53C335.234 381.91 336.824 380.66 338.714 380L339.554 379.7C340.384 379.41 341.164 379.02 341.884 378.56C342.504 378.16 343.074 377.71 343.594 377.19C344.724 376.09 345.614 374.74 346.194 373.21H363.714L363.424 383.53L363.334 388.83V388.82Z" fill="#2E363D"/><path d="M351.365 374.97H345.205" stroke="#121D30" stroke-width="0.75" stroke-miterlimit="10"/><path d="M349.775 377.12H343.615" stroke="#121D30" stroke-width="0.75" stroke-miterlimit="10"/><path d="M357.485 381.32C357.495 381.74 357.165 382.08 356.745 382.08C356.325 382.08 355.975 381.74 355.965 381.32C355.955 380.9 356.285 380.56 356.705 380.56C357.125 380.56 357.475 380.9 357.485 381.32Z" stroke="#121D30" stroke-width="0.75" stroke-miterlimit="10"/><path d="M353.764 381.32C353.774 381.74 353.444 382.08 353.024 382.08C352.604 382.08 352.254 381.74 352.244 381.32C352.234 380.9 352.564 380.56 352.984 380.56C353.404 380.56 353.754 380.9 353.764 381.32Z" stroke="#121D30" stroke-width="0.75" stroke-miterlimit="10"/><path d="M363.334 388.82H332.164L332.974 386.04C333.244 385.13 333.644 384.29 334.154 383.53H363.414L363.324 388.83L363.334 388.82Z" fill="#DEDEDE"/><path d="M363.505 386.18H343.895" stroke="#121D30" stroke-width="0.75" stroke-miterlimit="10"/><path d="M349.654 388.82H332.154L332.964 386.04C333.234 385.13 333.634 384.29 334.144 383.53C335.224 381.91 336.814 380.66 338.704 380L339.544 379.7C340.374 379.41 341.154 379.02 341.874 378.56C345.934 380.43 348.954 384.27 349.644 388.83L349.654 388.82Z" fill="#DEDEDE"/><path d="M346.195 373.21L345.795 371.66C345.515 370.57 346.314 369.53 347.434 369.53H348.994C350.224 369.53 351.394 370.16 352.094 371.19L353.455 373.21H346.195Z" fill="#2E363D"/><path d="M348.206 260.49L332.186 253.52C331.396 255.32 332.226 257.42 334.026 258.21L336.256 259.18L337.756 262.83C338.266 275.11 348.856 268.74 348.856 268.74L348.196 260.49H348.206Z" fill="#D28A7B"/><path d="M338.395 258.1L341.355 269.62C334.895 270.08 330.395 270.69 330.395 270.69C327.835 268.82 326.395 265.95 325.615 263.6L333.275 262.03C330.075 261.47 326.805 261.89 325.195 262.18C324.805 260.68 324.705 259.64 324.705 259.64C332.385 258.05 338.405 258.09 338.405 258.09L338.395 258.1Z" fill="#D28A7B"/><path d="M343.825 268.08C337.095 267.35 338.125 260.36 338.125 260.36L334.035 258.2" stroke="#121D30" stroke-width="0.75" stroke-miterlimit="10"/><path d="M326.436 265.68C332.286 265.03 335.066 264.67 335.066 264.67" stroke="#121D30" stroke-width="0.75" stroke-miterlimit="10"/><path d="M328.176 268.31L335.866 267.21" stroke="#121D30" stroke-width="0.75" stroke-miterlimit="10"/><path d="M367.766 355.69L376.646 264.39H381.116" stroke="white" stroke-width="0.75" stroke-miterlimit="10"/><path d="M392.945 239.07C392.945 239.07 403.755 254.16 401.525 270.69C399.295 287.22 397.305 307.3 397.305 307.3L407.305 355.69" stroke="white" stroke-width="0.75" stroke-miterlimit="10"/><path d="M364.335 363.61L350.375 362.47" stroke="#121D30" stroke-width="0.75" stroke-miterlimit="10"/><path d="M252.155 216.71L262.645 236.85H370.575C373.675 236.85 376.185 239.36 376.185 242.46V384.21C376.185 387.31 373.675 389.82 370.575 389.82H163.565C160.465 389.82 157.955 387.31 157.955 384.21V219.31C157.955 216.21 160.465 213.7 163.565 213.7H247.175C249.265 213.7 251.185 214.86 252.155 216.72V216.71Z" fill="#EDB837"/><path d="M167.785 241.85C180.708 241.85 191.185 231.374 191.185 218.45C191.185 205.527 180.708 195.05 167.785 195.05C154.861 195.05 144.385 205.527 144.385 218.45C144.385 231.374 154.861 241.85 167.785 241.85Z" fill="#2E363D"/><path d="M177.765 227.15L169.065 218.45L177.765 209.75C178.115 209.4 178.115 208.83 177.765 208.48C177.415 208.13 176.845 208.13 176.495 208.48L167.795 217.18L159.095 208.48C158.745 208.13 158.175 208.13 157.825 208.48C157.475 208.83 157.475 209.4 157.825 209.75L166.525 218.45L157.825 227.15C157.475 227.5 157.475 228.07 157.825 228.42C158.175 228.77 158.745 228.77 159.095 228.42L167.795 219.72L176.495 228.42C176.845 228.77 177.415 228.77 177.765 228.42C178.115 228.07 178.115 227.5 177.765 227.15Z" fill="white"/><path d="M232.836 356.45C259.026 321.03 292.036 335.57 300.406 356.45" stroke="#121D30" stroke-width="0.75" stroke-miterlimit="10"/><path d="M218.115 299.05C223.218 299.05 227.355 291.555 227.355 282.31C227.355 273.065 223.218 265.57 218.115 265.57C213.012 265.57 208.875 273.065 208.875 282.31C208.875 291.555 213.012 299.05 218.115 299.05Z" fill="#121D30"/><path d="M324.365 282.31C324.365 291.55 320.225 299.05 315.125 299.05C310.025 299.05 305.885 291.56 305.885 282.31C305.885 278.27 306.675 274.57 307.985 271.68C309.675 267.95 312.245 265.57 315.125 265.57C320.225 265.57 324.365 273.06 324.365 282.31Z" fill="#121D30"/><path d="M311.646 259.84C318.806 251.95 324.576 251.77 326.436 264.09L311.646 259.84Z" fill="#121D30"/><path d="M218.386 247.25C211.226 239.36 205.456 239.18 203.596 251.5L218.386 247.25Z" fill="#121D30"/></svg>