<svg class="success" xmlns="http://www.w3.org/2000/svg" width="2144" height="1601" viewBox="0 0 2144 1601"><path d="M2043.43 1207.23C1997.84 1072.92 1875.62 962.77 1734.41 949.36C1601.12 936.71 1472.42 1005.98 1338.54 1007.22C1122.03 1009.22 942.33 837.46 730.23 793.96C483.73 743.4 211.69 896.56 127.06 1133.53C72.41 1286.56 100.4 1462.03 187.06 1598.67H2004.47C2066.32 1478.65 2086.74 1334.84 2043.42 1207.23H2043.43Z" fill="#E2EDFF"/><path d="M346.03 1228.7C521.7 1201.34 677.69 1075.94 744.97 911.81C759.12 877.3 769.06 841.62 775.7 805.3C774.37 804.91 773.05 804.53 771.72 804.15C767.26 828.56 761.38 852.74 753.65 876.52C726.24 960.81 675.51 1036.5 610 1095.98C544.94 1155.05 465.18 1198.28 379.45 1218.17C290.61 1238.78 196.78 1232.97 110.18 1205.04C109.41 1204.79 108.66 1204.51 107.89 1204.26C107.64 1205.57 107.38 1206.88 107.14 1208.2C183.78 1233.28 265.99 1241.18 346.02 1228.72L346.03 1228.7Z" fill="white"/><path d="M631.42 1347.31C762.55 1364.84 897.26 1374.22 1026.83 1341.03C1085.6 1325.98 1142.39 1302.06 1192.16 1267.1C1242.13 1232 1283.49 1186.12 1316.3 1134.79C1342.53 1093.74 1362.99 1050.07 1379.44 1004.85C1377.99 1005 1376.55 1005.16 1375.1 1005.29C1363.87 1035.87 1350.76 1065.78 1335.16 1094.76C1304.92 1150.89 1265.78 1202.64 1216.55 1243.48C1168.01 1283.75 1110.66 1312.1 1050.48 1330.3C923.33 1368.75 788.67 1363.04 658.42 1346.81C515.92 1329.05 373.3 1298.98 228.98 1305.41C185.85 1307.33 142.22 1312.47 99.58 1321.8C99.64 1323.19 99.67 1324.59 99.74 1325.98C134.51 1318.27 169.94 1313.37 205.22 1310.8C348.28 1300.4 490.27 1328.44 631.43 1347.31H631.42Z" fill="white"/><path d="M1914.73 1441.5C1864.34 1430.45 1814.61 1415.04 1768.62 1391.37C1725.77 1369.32 1685.39 1339.92 1656.79 1300.65C1627.39 1260.29 1613.35 1211.36 1617.74 1161.53C1625.79 1070.01 1685.45 996.87 1762.56 953.37C1760.59 953 1758.61 952.67 1756.63 952.34C1691.9 989.74 1640.31 1047.03 1620.58 1122.35C1608 1170.38 1610.89 1221.36 1631.97 1266.57C1652.18 1309.93 1686.93 1344.66 1726.27 1371.1C1767.78 1399 1814.71 1418.56 1862.62 1432.41C1920.13 1449.04 1979.53 1459.16 2039.26 1462.98C2044.05 1463.29 2048.84 1463.48 2053.64 1463.71C2053.94 1462.39 2054.23 1461.07 2054.52 1459.75C2007.52 1457.6 1960.71 1451.59 1914.75 1441.51L1914.73 1441.5Z" fill="white"/><path d="M866.14 907.38C875.24 888.15 885.41 869.48 896.58 851.43C895.35 850.87 894.12 850.31 892.89 849.75C884.89 862.72 877.39 876 870.45 889.58C853.16 923.4 839.21 958.96 829.04 995.56C817.93 1035.55 808.53 1079.5 818.81 1120.66C826.75 1152.44 847.56 1182.11 879.19 1193.54C914.97 1206.47 953.85 1193.05 985.54 1175.49C1020.08 1156.35 1051.69 1130.8 1081.62 1105.2C1111.73 1079.44 1140.12 1051.68 1166.59 1022.19C1177.26 1010.31 1187.59 998.13 1197.61 985.71C1196.19 985.29 1194.78 984.86 1193.36 984.43C1144.97 1044.24 1089.04 1097.95 1026.89 1143.52C995.03 1166.88 959.13 1190.52 918.75 1194.26C878.63 1197.98 845.07 1174.9 829.18 1138.77C811.57 1098.72 818.74 1053.07 828.84 1012.07C837.72 976.04 850.27 940.9 866.14 907.36V907.38Z" fill="white"/><path d="M1943.68 1336.97C1985.15 1339.18 2026.76 1328.88 2064.76 1310.8C2064.66 1309.59 2064.57 1308.38 2064.46 1307.18C2032.98 1322.1 1998.92 1331.28 1963.47 1332.99C1923.71 1334.91 1883.1 1324.5 1853.49 1296.85C1826.77 1271.91 1813.39 1235.65 1823.61 1199.8C1828.15 1183.89 1837.12 1168.98 1850.06 1158.51C1866.85 1144.91 1888.52 1141.45 1909.51 1140.81C1928.42 1140.23 1947.43 1141.59 1966.25 1139.18C1979.98 1137.42 1993.4 1133.66 2006.11 1128.22C2005.4 1127.07 2004.72 1125.91 2004 1124.78C1999.84 1126.54 1995.61 1128.14 1991.31 1129.52C1952.51 1141.93 1910.99 1129.9 1872.5 1142.19C1842.44 1151.79 1822.43 1178.7 1817.36 1209.33C1812.05 1241.38 1824.08 1272.66 1846.51 1295.63C1872.08 1321.82 1907.54 1335.05 1943.68 1336.97Z" fill="white"/><path d="M1561.92 1469.14C1543.94 1426.31 1525.96 1383.49 1507.97 1340.66C1495.38 1310.7 1482.15 1278.02 1455.01 1258.19C1426.35 1237.25 1387.36 1237.25 1355.34 1250.06C1321.33 1263.67 1294.31 1290.09 1271.24 1317.8C1225.3 1372.98 1192.34 1438.56 1174.05 1507.92C1166.21 1537.66 1161.08 1568.07 1158.75 1598.66H1162.86C1169.78 1509.06 1200.7 1421.3 1253.08 1347.86C1274.5 1317.83 1299.46 1287.99 1330.57 1267.59C1362.53 1246.63 1405.28 1236.53 1441.03 1254.32C1473.69 1270.58 1489.18 1306.21 1502.58 1338.04C1519.32 1377.79 1535.98 1417.57 1552.68 1457.34C1572.46 1504.44 1592.24 1551.55 1612.02 1598.65H1616.32C1598.19 1555.48 1580.06 1512.3 1561.93 1469.13L1561.92 1469.14Z" fill="white"/><path d="M1391.76 720.2C1365.81 720.98 1339.8 719.91 1309.64 708.98C1245.42 685.72 1165.42 723.84 1164.89 797.94C1164.48 855.45 1217.36 893.51 1266.35 911.05C1358.76 944.13 1550.17 926.79 1541.16 789.49C1538.28 745.56 1514.92 725.11 1472.9 720.26C1443.24 716.84 1417.54 719.44 1391.77 720.21L1391.76 720.2Z" fill="#E2EDFF"/><path d="M1737.51 341.43C1712.32 332.71 1695.11 317.58 1675.7 295.42L1683.91 277.93C1704.28 304.91 1710.96 319.51 1736.42 317.4L1737.5 341.43H1737.51Z" fill="#FFB900"/><path d="M2026.66 728.93C2007.92 704.56 1999.56 679.54 1992.61 646.68L2008.58 636.08C2014.08 673.96 2013.08 691.63 2037.32 706.3L2026.66 728.92V728.93Z" fill="#007BFF"/><path d="M1399.09 407.25C1372.57 413.84 1350.52 410.06 1323.48 401.16L1323.43 380.61C1353.41 393.3 1365.7 402.68 1387.83 386.14L1399.09 407.26V407.25Z" fill="#14CCA1"/><path d="M717.32 323.65C704.78 341.48 690.7 351.01 671.75 360.26L663.61 348.56C685.73 339.91 696.45 338.75 702.55 317.57L717.31 323.65H717.32Z" fill="#FF5C33"/><path d="M281.12 842.45C251.33 843.95 229.03 835.71 202.81 821.25L208.21 800.21C236.53 819.13 247.03 831.16 274.82 818.61L281.12 842.45Z" fill="#007BFF"/><path d="M335.44 331.83C312.71 315.31 300.81 295.06 289.43 267.23L304.9 252.74C315.39 285.58 316.53 301.97 343.84 307.99L335.44 331.82V331.83Z" fill="#14CCA1"/><path d="M471.43 514.07C445.68 532.05 421.38 537.28 390.27 539.23L383.84 517.71C419.21 518.51 435 523.21 453.07 496.63L471.43 514.07Z" fill="#007BFF"/><path d="M840.21 18.24C814.38 33.43 790.73 36.49 760.72 35.85L755.83 14.65C789.76 18.28 804.66 24.08 823.62 0L840.21 18.24Z" fill="#FFB900"/><path d="M1206.27 70.6198C1184.74 59.9998 1170.82 44.6298 1155.56 22.7798L1164.33 8.25977C1180.03 34.4698 1184.68 48.1598 1207.37 49.2398L1206.26 70.6098L1206.27 70.6198Z" fill="#14CCA1"/><path d="M1541.41 154.65C1564.97 140.77 1578.04 122.66 1591.08 97.42L1576.67 82.79C1564.2 112.78 1562.03 128.03 1534.6 131.77L1541.41 154.64V154.65Z" fill="#FF5C33"/><path d="M765.77 900.16C742.02 886.01 727.25 867.19 711.44 840.87L722.45 825.18C738.46 856.52 742.78 872.55 768.54 875.94L765.76 900.17L765.77 900.16Z" fill="#FF5C33"/><path d="M1551.38 687.29C1541.93 716.73 1527.33 736.24 1506.34 757.87L1491.38 746.88C1516.71 724.42 1530.12 717.45 1529.98 686.95L1551.37 687.29H1551.38Z" fill="#FF5C33"/><path d="M576 210C581.523 210 586 205.523 586 200C586 194.477 581.523 190 576 190C570.477 190 566 194.477 566 200C566 205.523 570.477 210 576 210Z" fill="#FF5C33"/><path d="M1370.66 210C1376.18 210 1380.66 205.523 1380.66 200C1380.66 194.477 1376.18 190 1370.66 190C1365.14 190 1360.66 194.477 1360.66 200C1360.66 205.523 1365.14 210 1370.66 210Z" fill="#FFB900"/><path d="M1632 514.67C1637.52 514.67 1642 510.193 1642 504.67C1642 499.147 1637.52 494.67 1632 494.67C1626.48 494.67 1622 499.147 1622 504.67C1622 510.193 1626.48 514.67 1632 514.67Z" fill="#FF5C33"/><path d="M592 616C597.523 616 602 611.523 602 606C602 600.477 597.523 596 592 596C586.477 596 582 600.477 582 606C582 611.523 586.477 616 592 616Z" fill="#14CCA1"/><path d="M136.092 498.346L116.095 518.343L136.092 538.34L156.089 518.343L136.092 498.346Z" fill="#FFB900"/><path d="M1872.84 465.576L1852.84 485.573L1872.84 505.57L1892.83 485.573L1872.84 465.576Z" fill="#14CCA1"/><path d="M1040.11 1133.75L1158.27 1133.61C1172.16 1133.59 1183.44 1144.85 1183.46 1158.74L1183.51 1198.09L1015.03 1198.29L1014.98 1158.94C1014.96 1145.05 1026.22 1133.77 1040.11 1133.75Z" fill="#FFB900"/><path d="M1153.74 963.16H1044.74V1156.16H1153.74V963.16Z" fill="#FFB900"/><path d="M1044.74 1046.57V963.16H1153.74L1153.64 1003.67L1044.74 1046.57Z" fill="#E8950C"/><path d="M1286.68 814.32L1279.73 791.35C1407.36 752.72 1461.48 672.88 1445.17 547.27C1444.99 547.09 1443.64 546.3 1441.98 546.75L1424.41 551.5C1417.38 553.4 1412.65 558.67 1412.65 564.6V591.82C1412.65 608.34 1398.71 621.54 1380.92 621.89C1362.53 622.24 1331.06 622.84 1326.87 622.84V598.84C1329.74 598.84 1349.77 598.49 1380.46 597.9C1384.9 597.82 1388.66 595.03 1388.66 591.83V564.61C1388.66 547.69 1400.51 533.12 1418.15 528.34L1435.72 523.59C1443.45 521.5 1451.64 522.81 1458.21 527.19C1464.17 531.17 1468.09 537.36 1468.98 544.19C1477.55 610.22 1467.94 665.94 1440.41 709.82C1410.61 757.32 1358.89 792.48 1286.7 814.33L1286.68 814.32Z" fill="#FFB900"/><path d="M911.59 814.32C839.4 792.47 787.68 757.31 757.88 709.81C730.35 665.93 720.73 610.21 729.31 544.18C730.2 537.36 734.12 531.16 740.08 527.18C746.64 522.8 754.84 521.5 762.57 523.58L780.13 528.33C797.77 533.1 809.62 547.68 809.62 564.6V591.82C809.62 595.03 813.37 597.8 817.82 597.89C848.5 598.48 868.53 598.83 871.41 598.83V622.83C867.22 622.83 835.75 622.24 817.36 621.88C799.57 621.54 785.63 608.33 785.63 591.81V564.59C785.63 558.66 780.9 553.39 773.87 551.49L756.31 546.74C754.64 546.28 753.29 547.07 753.06 547.45C736.81 672.87 790.93 752.71 918.56 791.34L911.61 814.31L911.59 814.32Z" fill="#FFB900"/><path d="M1339.18 549.69L1313.1 875.37C1309.98 914.41 1290.94 948.65 1262.66 971.89C1238.54 991.73 1207.66 1003.57 1174.18 1003.57H1024.3C951.66 1003.57 891.22 947.77 885.42 875.37L871.9 706.37L859.34 549.69C857.38 525.17 876.74 504.17 901.38 504.17H1297.14C1321.74 504.17 1341.14 525.17 1339.18 549.69Z" fill="#FFB900"/><path d="M1262.66 971.89C1238.54 991.73 1207.66 1003.57 1174.18 1003.57H1024.3C951.66 1003.57 891.22 947.77 885.42 875.37L871.9 706.37C966.82 826.33 1118.18 929.25 1262.66 971.89Z" fill="#E8950C"/><path d="M1180.47 1001.57H1024.3V1005.57H1180.47V1001.57Z" fill="#001F40"/><path d="M1069.14 1131.75H1040.11V1135.75H1069.14V1131.75Z" fill="#001F40"/><path d="M1159.14 1131.75H1130.11V1135.75H1159.14V1131.75Z" fill="#001F40"/><path d="M1019.69 1184.31L1178.53 1184.11C1202.85 1184.08 1222.62 1203.8 1222.65 1228.12L1222.73 1293.35L975.775 1293.65L975.695 1228.42C975.666 1204.1 995.382 1184.34 1019.7 1184.31L1019.69 1184.31Z" fill="#FFB900"/><path d="M1183.39 1182.67H1015.14V1186.67H1183.39V1182.67Z" fill="#E8950C"/><path opacity="0.6" d="M1227.64 687.67C1239.79 687.67 1249.64 668.418 1249.64 644.67C1249.64 620.922 1239.79 601.67 1227.64 601.67C1215.49 601.67 1205.64 620.922 1205.64 644.67C1205.64 668.418 1215.49 687.67 1227.64 687.67Z" fill="white"/><path d="M1705.35 1496.34H493.93V1599.32H1705.35V1496.34Z" fill="white"/><path d="M1505.16 1393.37H694.11V1496.35H1505.16V1393.37Z" fill="white"/><path d="M1364.88 1290.39H834.38V1393.37H1364.88V1290.39Z" fill="white"/><path d="M1398.04 1496.35H801.24V1599.31H1398.04V1496.35Z" fill="#FF5C33"/><path d="M1312.12 1393.35H887.16V1496.35H1312.12V1393.35Z" fill="#FF5C33"/><path d="M1224 1290.39H975.28V1393.35H1224V1290.39Z" fill="#FF5C33"/><path opacity="0.1" d="M975.28 1369.31H834.4V1393.31H975.28V1369.31Z" fill="#003E80"/><path opacity="0.1" d="M1364.88 1369.31H1224V1393.31H1364.88V1369.31Z" fill="#003E80"/><path opacity="0.3" d="M1224 1369.31H975.28V1393.31H1224V1369.31Z" fill="#4A191B"/><path opacity="0.1" d="M887.16 1472.19H694.12V1496.19H887.16V1472.19Z" fill="#003E80"/><path opacity="0.1" d="M1505.16 1472.19H1312.12V1496.19H1505.16V1472.19Z" fill="#003E80"/><path opacity="0.3" d="M1312.12 1472.19H887.16V1496.19H1312.12V1472.19Z" fill="#4A191B"/><path opacity="0.1" d="M801.24 1575.31H493.92V1599.31H801.24V1575.31Z" fill="#003E80"/><path opacity="0.1" d="M1705.36 1575.31H1398.04V1599.31H1705.36V1575.31Z" fill="#003E80"/><path opacity="0.3" d="M1398.04 1575.31H801.24V1599.31H1398.04V1575.31Z" fill="#4A191B"/><path d="M495.93 1599.32H491.93V1494.34L692.11 1494.19V1391.37L832.4 1391.31L832.38 1288.39H974.3V1292.39H836.38L836.4 1395.31L696.11 1395.37V1498.19L495.93 1498.34V1599.32Z" fill="#95BEFF"/><path d="M1707.34 1599.32H1703.34V1498.34L1503.16 1498.19V1395.37L1362.87 1395.31L1362.89 1292.39H1222.68V1288.39H1366.89L1366.87 1391.31L1507.16 1391.37V1494.19L1707.34 1494.34V1599.32Z" fill="#95BEFF"/><path d="M1074.26 593.75L1059.35 643.16L1117.57 661.51L1098.13 628.99L1103.83 600.43L1074.26 593.75Z" fill="#001F40"/><path d="M1097.24 627.174L1085.48 632.96L1087.24 636.549L1099.01 630.763L1097.24 627.174Z" fill="white"/><path d="M1063.97 439.33L1104.92 443.26C1113.34 444.07 1121.58 446.83 1128.27 452.01C1141.28 462.09 1146.41 477.78 1143.6 493.79C1142.87 497.94 1141.99 501.77 1141.36 505.04L1107.85 623.9L1057.03 596.78L1079.7 508.26L1028.1 506.66L999.95 447.64L1010.11 400.59L1063.97 439.32V439.33Z" fill="#007BFF"/><path d="M1056.9 646.96L1044.23 701.12L1108.1 716.89L1084.97 683.23L1089.15 652.13L1056.9 646.96Z" fill="#001F40"/><path d="M1083.97 681.468L1071.72 688.505L1073.71 691.974L1085.96 684.936L1083.97 681.468Z" fill="white"/><path d="M1002.29 507.47L1046.15 667.49L1095.41 661.91L1066.6 492.33C1063.81 477.55 1063.19 468.47 1040.56 457.2L1016.33 443.76L1010.12 400.62L973.37 424.55L967.43 480.75C965.99 494.36 976.13 506.38 989.54 506.95L1002.3 507.49" fill="#007BFF"/><path d="M1066.12 438.5L993.05 446.8C984.89 447.73 977.52 441.89 976.56 433.73L963.81 325.53L1024.73 310.67L1089.36 320.33L1077.5 427.09C1076.83 433.08 1072.11 437.82 1066.12 438.5Z" fill="white"/><path d="M914.14 196.22C914.14 196.22 919.82 168.32 915.42 169.34C911.02 170.36 906.49 181.07 906.49 181.07C906.49 181.07 896.83 157.86 893.13 158.1C889.43 158.34 890.54 164.22 890.54 164.22C890.54 164.22 883.63 160.94 881.83 167.75C881.83 167.75 874.92 164.47 874.98 177.12C875 181.72 878.7 197.701 883.39 216.181L916.48 203.6L914.15 196.23L914.14 196.22Z" fill="#FFBA9A"/><path d="M939.64 267.67L916.48 203.59L883.39 216.17C889.19 239 896.51 265.64 900.31 279.33C901.99 285.36 905.02 290.9 909.2 295.56L975.64 374.67L1004.31 334L939.64 267.67Z" fill="#003E80"/><path d="M902.08 193.82C898.81 189.94 899.08 186.21 902.91 182.74L903.58 183.48C900.19 186.57 899.95 189.74 902.85 193.18L902.08 193.82Z" fill="#974245"/><path d="M890.085 163.881L889.14 164.209L893.876 177.861L894.821 177.533L890.085 163.881Z" fill="#974245"/><path d="M886.79 179.91L882.61 167.46L883.56 167.14L887.74 179.6L886.79 179.91Z" fill="#974245"/><path d="M882.31 183.42L877.09 169.07L878.03 168.72L883.25 183.08L882.31 183.42Z" fill="#974245"/><path d="M1171.08 156.9C1170.34 144.27 1161.8 146.83 1161.8 146.83C1160.13 141.33 1154.74 145.01 1154.74 145.01C1154.74 145.01 1155.02 141.33 1151.3 141.33C1147.58 141.33 1139.88 162.84 1139.88 162.84C1139.88 162.84 1134.68 152.44 1130.22 151.7C1125.76 150.96 1133.19 178.44 1133.19 178.44L1131.05 187.07L1164.68 198.91C1168.43 179.13 1171.36 161.69 1171.07 156.89L1171.08 156.9Z" fill="#FFBA9A"/><path d="M1131.06 187.08L1111.64 252.67L1055.64 327.34L1087.64 360.67L1144.42 277.27C1148.29 272.35 1150.97 266.64 1152.26 260.51C1155.09 247.1 1160.42 221.48 1164.69 198.92L1131.06 187.08Z" fill="#003E80"/><path d="M1145.41 175.39L1144.58 174.83C1147.1 171.1 1146.52 167.97 1142.81 165.27L1143.4 164.46C1147.57 167.51 1148.24 171.18 1145.4 175.39H1145.41Z" fill="#974245"/><path d="M1154.2 144.408L1150.94 158.484L1151.91 158.71L1155.18 144.634L1154.2 144.408Z" fill="#974245"/><path d="M1160.98 146.899L1158.15 159.732L1159.13 159.947L1161.95 147.114L1160.98 146.899Z" fill="#974245"/><path d="M1163.95 162.95L1162.98 162.72L1166.65 147.88L1167.62 148.12L1163.95 162.95Z" fill="#974245"/><path d="M1023.86 328.63C1016.86 328.63 1011.19 322.96 1011.19 315.96V293.47H1036.53V315.96C1036.53 322.96 1030.86 328.63 1023.86 328.63Z" fill="#FFBA9A"/><path d="M1036.24 296.71C1032.26 310.85 1016.06 311.44 1011.05 296.71H1036.24Z" fill="#001F40"/><path d="M1023.86 302.3C1034.19 302.3 1042.56 292.54 1042.56 280.5C1042.56 268.46 1034.19 258.7 1023.86 258.7C1013.53 258.7 1005.16 268.46 1005.16 280.5C1005.16 292.54 1013.53 302.3 1023.86 302.3Z" fill="#FFBA9A"/><path d="M1006.74 280.87C1007.84 265.84 1017.79 262.31 1017.79 262.31L1030.72 262.09C1036.02 266.07 1040.54 273.56 1040.77 281.43L1045.19 281.21C1047.94 266.52 1045.52 252.15 1037.01 248.84L1041.21 246.74C1006.14 238.98 997.46 253.04 1001.66 277.68L1006.74 280.88V280.87Z" fill="#001F40"/><path d="M1009.08 279.46C1010.48 282.4 1009.53 285.77 1006.96 287C1004.39 288.22 1001.17 286.83 999.77 283.9C998.37 280.96 999.32 277.59 1001.89 276.36C1004.46 275.14 1007.68 276.53 1009.08 279.46Z" fill="#FFBA9A"/><path d="M1005.33 283.15C1004.73 281.45 1003.61 280.34 1001.92 279.74L1002.22 278.9C1004.19 279.6 1005.48 280.89 1006.17 282.85L1005.33 283.15Z" fill="#001F40"/><path d="M1039.25 279.46C1037.85 282.4 1038.8 285.77 1041.37 287C1043.94 288.22 1047.16 286.83 1048.56 283.9C1049.96 280.97 1049.01 277.59 1046.44 276.36C1043.87 275.14 1040.65 276.53 1039.25 279.46Z" fill="#FFBA9A"/><path d="M1043 283.15L1042.16 282.85C1042.85 280.89 1044.15 279.59 1046.11 278.9L1046.41 279.74C1044.71 280.34 1043.6 281.46 1043 283.15Z" fill="#001F40"/><path d="M1010.9 314.01C1023.92 357.82 1019.52 424.74 1004.68 474.85L951.94 483.02L963.83 325.53L1010.91 314.01H1010.9Z" fill="#003E80"/><path d="M1036.4 312.51C1040.4 363.24 1049.83 436.58 1068.48 471.73L1100.39 455.42L1089.37 320.33L1036.4 312.51Z" fill="#003E80"/><path d="M1094.42 662.06C1094.14 660.36 1066.61 491.731 1062.19 477.461C1057.88 463.581 1030.05 452.201 1029.77 452.091L1030.52 450.23C1031.7 450.71 1059.51 462.08 1064.1 476.86C1068.57 491.26 1095.27 654.77 1096.4 661.73L1094.42 662.05V662.06Z" fill="#001F40"/><path d="M999.627 495.275L997.704 495.824L1017.71 565.822L1019.63 565.272L999.627 495.275Z" fill="#001F40"/><path d="M1094.29 510.661L1079.6 509.26L1079.78 507.271L1094.48 508.67L1094.29 510.661Z" fill="#001F40"/><path d="M417.35 1552.8L409.91 1600.05H473.53L448.6 1575.12L450.46 1551.68L417.35 1552.8Z" fill="#001F40"/><path d="M447.526 1573.5L434.873 1580.94L436.902 1584.39L449.554 1576.94L447.526 1573.5Z" fill="white"/><path d="M548.72 1209.03C547.78 1214.65 546.89 1220.24 545.86 1225.77C544.12 1236.22 542.29 1246.57 540.41 1256.8C533.71 1293.58 526.39 1329.16 518.45 1363.63V1363.72C502.6 1433.27 484.48 1498.36 464.48 1559.83H407.92C430.69 1451.17 452.74 1343.68 459.84 1260.46C460.91 1248.23 461.63 1236.49 461.98 1225.37L548.72 1209.03Z" fill="#14CCA1"/><path d="M546.44 1550.57L543.68 1599.14L611.52 1600.05L584.59 1575.12L586.6 1551.68L546.44 1550.57Z" fill="#001F40"/><path d="M583.692 1573.26L570.026 1580.7L571.939 1584.21L585.604 1576.77L583.692 1573.26Z" fill="white"/><path d="M593.98 1558.57H534.87C530.72 1491.38 525.67 1425.72 518.44 1363.71V1363.62C514.2 1327.19 509.24 1291.97 503.26 1258.49C501.34 1247.69 499.29 1237.06 497.14 1226.62L545.84 1225.77L570.08 1225.37C571.69 1235.28 573.2 1245.24 574.54 1255.24C588.29 1353.09 592.17 1455.32 593.96 1558.58L593.98 1558.57Z" fill="#14CCA1"/><path opacity="0.3" d="M574.56 1255.24L540.41 1256.8L503.27 1258.5L459.83 1260.46C460.9 1248.23 461.62 1236.49 461.97 1225.37L548.71 1209.03C547.77 1214.65 546.88 1220.24 545.85 1225.77L570.09 1225.37C571.7 1235.28 573.21 1245.24 574.55 1255.24H574.56Z" fill="#4A191B"/><path d="M514.68 1389.32L512.72 1388.92L532.81 1289.22L534.77 1289.62L514.68 1389.32Z" fill="#001F40"/><path d="M533.05 1090.76C503.11 1094 478.64 1091.5 454.83 1077.15L431.66 1116.48L458.64 1140.61L453.21 1225.72C452.89 1230.73 455.6 1235.44 460.09 1237.69C461.82 1238.56 463.74 1239.01 465.68 1239.01H567.86C573.42 1239.01 578.4 1235.54 580.32 1230.32C580.79 1229.05 581.06 1227.72 581.12 1226.37L585.49 1136.15L631.24 1125.34L620.69 1089.3C585.83 1093.37 554.38 1095.56 533.04 1090.77L533.05 1090.76Z" fill="#007BFF"/><path d="M454.84 1077.16L431.67 1116.49L399.57 1087.79C398.86 1087.17 398.19 1086.5 397.52 1085.83C391.31 1079.54 386.94 1071.63 385.02 1062.97C384.75 1061.85 384.48 1060.65 384.26 1059.44C377.21 1028.15 363.86 967.21 364.53 961.85C365.47 954.62 372.88 957.79 372.88 957.79C373.46 950.87 379.22 954.62 379.22 954.62C379.22 950.69 380.51 949.75 384.44 949.93C388.32 950.15 393.55 973.77 393.55 973.77C393.55 973.77 399.31 961.49 403.59 962.43C407.88 963.32 399.88 986.98 399.88 986.98L427.78 1055.42C436.89 1064.62 445.82 1071.71 454.83 1077.16H454.84Z" fill="#FFBA9A"/><path opacity="0.2" d="M401.89 1074.93C401.89 1079.17 400.24 1083.01 397.52 1085.82C391.31 1079.53 386.94 1071.62 385.02 1062.96C384.75 1061.84 384.48 1060.64 384.26 1059.43C384.93 1059.34 385.6 1059.3 386.27 1059.3C394.93 1059.3 401.89 1066.31 401.89 1074.92V1074.93Z" fill="#FF5C33"/><path d="M388.53 987.5C385.04 983.82 385.1 980.08 388.72 976.39L389.43 977.09C386.21 980.36 386.15 983.54 389.25 986.81L388.52 987.5H388.53Z" fill="#974245"/><path d="M380.78 964.57L378.72 954.719L379.7 954.52L381.76 964.359L380.78 964.57Z" fill="#974245"/><path d="M374.84 966.099L372.4 957.939L373.35 957.649L375.79 965.809L374.84 966.099Z" fill="#974245"/><path d="M369.057 960.47L368.091 960.729L370.135 968.349L371.101 968.09L369.057 960.47Z" fill="#974245"/><path d="M678.4 1100.06C677.95 1100.82 677.46 1101.53 677.02 1102.29L674.03 1106.75C669.97 1112.87 663.81 1117.29 656.75 1119.25C656.39 1119.38 655.99 1119.47 655.59 1119.56L631.26 1125.32L620.72 1089.29C630.45 1088.13 640.45 1086.88 650.59 1085.54L680.72 1028.62C680.72 1028.62 680.72 1004.42 684.07 1003.71C687.42 1002.95 690.05 1017.82 690.05 1017.82C690.05 1017.82 703.04 998.13 707.15 998.13C711.26 998.13 710.14 1003.71 710.14 1003.71C710.14 1003.71 713.93 999.02 716.21 1001.25C717.37 1002.41 717.19 1006.65 717.19 1006.65C717.19 1006.65 718.69 1005.25 721.64 1006.49C727.36 1008.89 709.16 1050.72 678.4 1100.04V1100.06Z" fill="#FFBA9A"/><path opacity="0.2" d="M678.4 1100.06C677.95 1100.82 677.46 1101.53 677.02 1102.29L674.03 1106.75C669.97 1112.87 663.81 1117.29 656.75 1119.25C656.12 1117.6 655.81 1115.86 655.81 1114.03C655.81 1105.37 662.82 1098.41 671.43 1098.41C673.93 1098.41 676.3 1098.99 678.39 1100.06H678.4Z" fill="#FF5C33"/><path d="M692.65 1031.69L692.15 1030.82C696.04 1028.56 696.89 1025.49 694.73 1021.44L695.61 1020.97C698.04 1025.52 697.04 1029.13 692.65 1031.68V1031.69Z" fill="#974245"/><path d="M706.2 1011.7L705.32 1011.22L710.08 1002.36L710.96 1002.84L706.2 1011.7Z" fill="#974245"/><path d="M712.95 1014.37L712.06 1013.91L716.54 1005.33L717.43 1005.79L712.95 1014.37Z" fill="#974245"/><path d="M717.34 1015.34L716.48 1014.82L720.6 1008.08L721.45 1008.6L717.34 1015.34Z" fill="#974245"/><path d="M432.274 1115.94L430.989 1117.47L472.323 1152.14L473.608 1150.61L432.274 1115.94Z" fill="#001F40"/><path d="M584.97 1171.72L582.97 1171.62L585.97 1113.95L587.97 1114.05L584.97 1171.72Z" fill="#001F40"/><path d="M533.1 1128.13C526.58 1128.13 519.93 1125.2 514.92 1120.03L516.36 1118.64C521.55 1124 528.6 1126.74 535.27 1126.01C540.91 1125.37 545.71 1122.22 548.79 1117.15L550.5 1118.19C547.1 1123.81 541.77 1127.29 535.5 1128C534.71 1128.09 533.91 1128.14 533.1 1128.14V1128.13Z" fill="#001F40"/><path d="M533.53 1111.97C525.56 1112.86 518.37 1107.12 517.47 1099.15L513.63 1064.85L542.51 1061.61L546.35 1095.91C547.24 1103.88 541.5 1111.07 533.53 1111.97Z" fill="#FFBA9A"/><path d="M523.28 1077.74C529.93 1085.37 537.46 1090.77 546.22 1093.07L544.14 1074.56L523.27 1077.75L523.28 1077.74Z" fill="#001F40"/><path d="M557.93 1040.63C557.93 1040.63 563.48 1077.05 550.77 1081.71C538.89 1086.06 523.28 1077.74 523.28 1077.74L512.8 1047.16L526.4 1034.76L557.93 1040.63Z" fill="#FFBA9A"/><path d="M518.28 1058.42C519.01 1051.45 521.75 1045.43 528.84 1041.47C549.53 1049.85 562.48 1043.44 571.77 1030.04C571.77 1030.04 559.93 1032.58 552.8 1027.98C545.67 1023.38 527.3 1010 515.69 1029.38C499.45 1036.91 502.9 1050 509.46 1058.41H518.28V1058.42Z" fill="#001F40"/><path d="M521.61 1057.43C524.01 1061.57 523.04 1066.6 519.45 1068.68C515.86 1070.76 511.01 1069.09 508.62 1064.95C506.22 1060.81 507.19 1055.78 510.78 1053.7C514.37 1051.62 519.22 1053.29 521.61 1057.43Z" fill="#FFBA9A"/><path d="M516.35 1064.88C516.11 1061.67 514.75 1059.47 512.19 1058.18L513.1 1056.4C516.29 1058.02 518.05 1060.82 518.35 1064.74L516.35 1064.89V1064.88Z" fill="#001F40"/><path d="M502.3 754C540.59 754 571.63 785.04 571.63 823.33C571.63 850.17 556.35 873.4 534.05 884.92L540.97 920.66L516.27 891.25C511.76 892.17 507.09 892.66 502.31 892.66C464.02 892.66 432.98 861.62 432.98 823.33C432.98 785.04 464.02 754 502.31 754H502.3Z" fill="white"/><path d="M544.4 927.86L515.5 893.45C511.17 894.26 506.74 894.67 502.31 894.67C462.98 894.67 430.98 862.67 430.98 823.34C430.98 784.01 462.98 752.01 502.31 752.01C541.64 752.01 573.64 784.01 573.64 823.34C573.64 849.61 559.37 873.48 536.3 886L544.4 927.86ZM517.03 889.06L537.54 913.47L531.8 883.83L533.13 883.14C555.65 871.51 569.63 848.59 569.63 823.33C569.63 786.2 539.42 756 502.3 756C465.18 756 434.97 786.21 434.97 823.33C434.97 860.45 465.18 890.66 502.3 890.66C506.87 890.66 511.43 890.2 515.86 889.29L517.03 889.05V889.06Z" fill="#95BEFF"/><path d="M470 834.67C475.352 834.67 479.69 830.332 479.69 824.98C479.69 819.628 475.352 815.29 470 815.29C464.648 815.29 460.31 819.628 460.31 824.98C460.31 830.332 464.648 834.67 470 834.67Z" fill="#95BEFF"/><path d="M502.3 834.67C507.652 834.67 511.99 830.332 511.99 824.98C511.99 819.628 507.652 815.29 502.3 815.29C496.948 815.29 492.61 819.628 492.61 824.98C492.61 830.332 496.948 834.67 502.3 834.67Z" fill="#95BEFF"/><path d="M534.61 834.67C539.962 834.67 544.3 830.332 544.3 824.98C544.3 819.628 539.962 815.29 534.61 815.29C529.258 815.29 524.92 819.628 524.92 824.98C524.92 830.332 529.258 834.67 534.61 834.67Z" fill="#95BEFF"/><path d="M1569.49 1026.5L1527.79 1110.52L1498.34 1131.4L1515.2 1153.21C1522.91 1149.85 1530.29 1146.59 1535.95 1144.07C1542.96 1140.95 1549.24 1136.4 1554.41 1130.72L1585.36 1096.68L1569.49 1026.5Z" fill="#FF5C33"/><path d="M1487.21 1139.3C1487.21 1139.3 1459.67 1138.59 1460.55 1146.77C1461.38 1154.52 1479.09 1159.22 1479.09 1159.22C1479.09 1159.22 1469.31 1169.83 1472.72 1170.01C1475.53 1170.16 1496.36 1161.41 1515.2 1153.21L1498.34 1131.4L1487.2 1139.3H1487.21Z" fill="#FFBA9A"/><path d="M1654.65 1440.04L1653.97 1495.29H1588.61L1618.93 1468.34L1622.3 1437.34L1654.65 1440.04Z" fill="#001F40"/><path d="M1620.31 1466.85L1617.55 1469.74L1627.7 1479.44L1630.47 1476.55L1620.31 1466.85Z" fill="white"/><path d="M1679.86 1221.89L1731.07 1201.15L1756.34 1261.42L1719.76 1243.88L1689.87 1252.76L1679.86 1221.89Z" fill="#001F40"/><path d="M1722.94 1230.09L1717.92 1243.2L1721.65 1244.63L1726.67 1231.52L1722.94 1230.09Z" fill="white"/><path d="M1554.73 1155.17L1606.01 1446.99L1662.66 1445L1627.87 1118.98L1554.73 1155.17Z" fill="#007BFF"/><path d="M1589.79 1140.41L1594.85 1293.08C1595.14 1301.98 1600.37 1309.97 1608.41 1313.81C1615.47 1317.18 1623.73 1316.87 1630.52 1312.98L1698.64 1273.98L1695.5 1213.47L1656.76 1227.86L1656.58 1133.77L1589.79 1140.41Z" fill="#007BFF"/><path d="M1728.99 1044.1L1674.39 1012.12C1668.63 1008.75 1662.24 1006.6 1655.61 1005.82L1620.41 1001.67L1591.17 1010.82C1574.01 1016.19 1561.96 1031.62 1560.91 1049.57L1554.72 1155.17L1656.56 1133.77L1664.68 1060.71L1723.43 1088.28C1734.65 1093.87 1748.28 1090.04 1754.93 1079.43C1768.38 1057.97 1790.25 1022.15 1804.27 994.5L1770.85 982.64L1728.97 1044.1H1728.99Z" fill="#FF5C33"/><path d="M1810.63 954.99C1810.63 954.99 1812.29 950.56 1810.08 949.18C1807.87 947.8 1805.38 950.29 1805.38 950.29C1805.38 950.29 1807.87 944.2 1804.27 943.09C1800.67 941.98 1786.84 962.19 1786.84 962.19C1786.84 962.19 1785.18 949.46 1781.58 949.74C1777.98 950.02 1775.77 975.48 1775.77 975.48L1770.88 982.65L1804.3 994.51C1812.5 978.32 1818.02 964.93 1817.56 958.88C1817.05 952.21 1810.64 955.01 1810.64 955.01L1810.63 954.99Z" fill="#FFBA9A"/><path d="M1788.39 975.14L1787.78 974.34C1791.35 971.6 1791.8 968.45 1789.15 964.71L1789.96 964.13C1792.95 968.34 1792.42 972.04 1788.39 975.13V975.14Z" fill="#974245"/><path d="M1801.07 957.05L1800.25 956.48L1806.02 948.24L1806.84 948.82L1801.07 957.05Z" fill="#974245"/><path d="M1810.62 953.626L1805.15 960.16L1805.91 960.802L1811.38 954.268L1810.62 953.626Z" fill="#974245"/><path d="M1813.4 957.82L1808.51 964.011L1809.3 964.631L1814.19 958.44L1813.4 957.82Z" fill="#974245"/><path d="M1647.69 960.43C1646.82 973.39 1635.69 985.7 1621.5 984.74C1607.32 983.78 1591.5 968.84 1592.38 955.87C1593.25 942.91 1607.9 936.19 1622.11 936.65C1642.04 937.3 1648.57 947.46 1647.69 960.43Z" fill="#E8950C"/><path d="M1619.13 1019.67C1611.72 1019.17 1606.12 1012.76 1606.61 1005.35L1608.66 974.859L1635.5 976.669L1633.45 1007.16C1632.95 1014.57 1626.54 1020.17 1619.13 1019.68V1019.67Z" fill="#FFBA9A"/><path d="M1627.13 992.959C1621.06 999.369 1614.47 1004.23 1606.62 1005.35L1607.72 990.819L1627.13 992.959Z" fill="#001F40"/><path d="M1598.13 957.099C1598.13 957.099 1592.89 991.7 1604.7 995.41C1616.52 999.12 1631.17 991.64 1631.17 991.64L1634.04 965.479L1630.75 948.479L1598.13 957.099Z" fill="#FFBA9A"/><path d="M1633.61 975.989C1630.3 972.279 1627.01 966.129 1626.24 959.819C1617.75 963.509 1607.42 963.909 1595.61 961.639L1599.12 950.779L1624.97 945.859L1638.31 949.669L1633.63 975.979L1633.61 975.989Z" fill="#E8950C"/><path d="M1641.42 979.93C1638.98 983.02 1634.84 983.82 1632.17 981.72C1629.5 979.62 1629.31 975.4 1631.75 972.31C1634.19 969.22 1638.33 968.42 1641 970.52C1643.67 972.62 1643.86 976.84 1641.42 979.93Z" fill="#FFBA9A"/><path d="M1634.94 979.27L1632.95 979.13C1633.31 973.99 1636.52 972.809 1639.14 972.729L1639.2 974.729C1636.47 974.809 1635.16 976.21 1634.94 979.27Z" fill="#001F40"/><path d="M1659.34 947.376C1664.7 939.861 1662.95 929.427 1655.43 924.07C1647.92 918.714 1637.48 920.464 1632.12 927.979C1626.77 935.494 1628.52 945.928 1636.03 951.285C1643.55 956.641 1653.98 954.891 1659.34 947.376Z" fill="#E8950C"/><path d="M1555.82 1154.73L1553.83 1154.6L1561.33 1040.1L1563.32 1040.23L1555.82 1154.73Z" fill="#001F40"/><path d="M1691.37 1074.06L1647.87 1052.06L1648.78 1050.28L1692.28 1072.28L1691.37 1074.06Z" fill="#001F40"/><path d="M1616.77 1033.86C1615.97 1033.86 1615.18 1033.79 1614.4 1033.66C1608.78 1032.68 1604.51 1028.28 1602.7 1021.6L1604.63 1021.08C1606.23 1026.98 1609.92 1030.85 1614.75 1031.7C1620.51 1032.71 1626.95 1029.29 1631.51 1022.77L1633.15 1023.92C1628.74 1030.22 1622.64 1033.87 1616.78 1033.87L1616.77 1033.86Z" fill="#001F40"/><path d="M1617.98 1316.89C1614.87 1316.89 1612.24 1316.37 1610.07 1315.64C1600.76 1312.5 1596.38 1304.64 1595.37 1300.93C1591.38 1286.31 1589.42 1170.29 1589.33 1165.35L1591.33 1165.32C1591.35 1166.52 1593.37 1286.03 1597.29 1300.41C1598.36 1304.31 1602.81 1311.08 1610.7 1313.75C1620.55 1317.08 1633.11 1313.2 1647.05 1302.55L1648.27 1304.14C1635.39 1313.99 1625.35 1316.9 1617.97 1316.9L1617.98 1316.89Z" fill="#001F40"/><path d="M1695.15 1212.49L1626 1237.74L1626.68 1239.62L1695.84 1214.37L1695.15 1212.49Z" fill="#001F40"/><path d="M1684.99 692C1646.7 692 1615.66 723.04 1615.66 761.33C1615.66 788.17 1630.94 811.4 1653.24 822.92L1646.32 858.66L1671.02 829.25C1675.53 830.17 1680.2 830.66 1684.98 830.66C1723.27 830.66 1754.31 799.62 1754.31 761.33C1754.31 723.04 1723.27 692 1684.98 692H1684.99Z" fill="white"/><path d="M1642.9 865.86L1651 824C1627.93 811.47 1613.66 787.6 1613.66 761.34C1613.66 722.01 1645.66 690.01 1685 690.01C1724.34 690.01 1756.33 722.01 1756.33 761.34C1756.33 800.67 1724.33 832.67 1685 832.67C1680.57 832.67 1676.14 832.26 1671.81 831.45L1642.9 865.86ZM1685 694C1647.87 694 1617.66 724.21 1617.66 761.33C1617.66 786.59 1631.65 809.51 1654.16 821.14L1655.49 821.83L1649.76 851.47L1670.27 827.06L1671.44 827.3C1675.87 828.21 1680.44 828.67 1685 828.67C1722.13 828.67 1752.33 798.47 1752.33 761.34C1752.33 724.21 1722.13 694.01 1685 694.01V694Z" fill="#95BEFF"/><path d="M1652.69 770.72C1658.04 770.72 1662.38 766.381 1662.38 761.03C1662.38 755.678 1658.04 751.34 1652.69 751.34C1647.34 751.34 1643 755.678 1643 761.03C1643 766.381 1647.34 770.72 1652.69 770.72Z" fill="#95BEFF"/><path d="M1684.99 770.72C1690.34 770.72 1694.68 766.381 1694.68 761.03C1694.68 755.678 1690.34 751.34 1684.99 751.34C1679.64 751.34 1675.3 755.678 1675.3 761.03C1675.3 766.381 1679.64 770.72 1684.99 770.72Z" fill="#95BEFF"/><path d="M1717.3 770.72C1722.65 770.72 1726.99 766.381 1726.99 761.03C1726.99 755.678 1722.65 751.34 1717.3 751.34C1711.95 751.34 1707.61 755.678 1707.61 761.03C1707.61 766.381 1711.95 770.72 1717.3 770.72Z" fill="#95BEFF"/><path d="M2144 1596.67H0V1600.67H2144V1596.67Z" fill="#001F40"/></svg>