<svg class="svgicon contact-wechat" xmlns="http://www.w3.org/2000/svg" width="98" height="89" viewBox="0 0 98 89"><path d="M58.1573 51.3462C60.6745 51.3464 62.7141 53.3904 62.7141 55.9109C62.7141 58.4315 60.6745 60.4754 58.1573 60.4757H58.1165C55.5991 60.4757 53.5577 58.4316 53.5577 55.9109C53.5577 53.3902 55.5991 51.3462 58.1165 51.3462H58.1573Z"/><path d="M76.3478 51.3462C78.8652 51.3462 80.9066 53.3902 80.9066 55.9109C80.9066 58.4316 78.8652 60.4757 76.3478 60.4757H76.307C73.7898 60.4754 71.7501 58.4315 71.7501 55.9109C71.7501 53.3904 73.7898 51.3464 76.307 51.3462H76.3478Z"/><path d="M26.2495 17.1154C28.7669 17.1154 30.8083 19.1595 30.8083 21.6801C30.8083 24.2008 28.7669 26.2449 26.2495 26.2449H26.2087C23.6913 26.2449 21.6499 24.2008 21.6499 21.6801C21.6499 19.1595 23.6913 17.1154 26.2087 17.1154H26.2495Z"/><path d="M53.5577 17.1154C56.0751 17.1154 58.1165 19.1595 58.1165 21.6801C58.1165 24.2008 56.0751 26.2449 53.5577 26.2449H53.5169C50.9995 26.2449 48.9581 24.2008 48.9581 21.6801C48.9581 19.1595 50.9995 17.1154 53.5169 17.1154H53.5577Z"/><path fill-rule="evenodd" clip-rule="evenodd" d="M39.8832 0C61.466 0 79.7683 15.422 79.7683 35.3724C79.7683 36.5021 79.7069 37.6211 79.5896 38.7294C90.2211 42.7083 97.9994 51.6886 97.9997 62.7551V62.7629C97.9907 66.6653 96.9919 70.5027 95.0977 73.9132C95.0848 73.9364 95.0723 73.9603 95.0589 73.9832C94.9393 74.1872 94.8625 74.4136 94.8336 74.6484C94.8054 74.8765 94.8221 75.1079 94.8841 75.3291L97.8365 84.5286C98.2044 85.6756 97.9416 86.9324 97.1469 87.8369C96.3523 88.7412 95.1423 89.1607 93.9595 88.9417L80.8774 86.5183H80.8736C80.6813 86.4826 80.3978 86.4913 80.0383 86.6291L80.0403 86.6311C76.1286 88.1551 71.7879 89 67.2321 89C53.8935 89 41.8816 81.5794 37.8767 70.7002C32.6854 70.4709 27.5668 69.336 22.7571 67.3315L22.7319 67.3218C22.4134 67.1862 22.1337 67.1688 21.9199 67.2109L21.9102 67.2129L4.06932 70.6807C2.89174 70.9093 1.68059 70.5036 0.877963 69.611C0.0751791 68.7181 -0.201101 67.4691 0.149564 66.3202L4.39758 52.4042L4.39952 52.3984C4.48685 52.1142 4.47348 51.682 4.19946 51.1964L4.19752 51.1944C1.52256 46.4475 0.000115272 41.0693 0 35.3724C0 15.4222 18.3007 0.000309016 39.8832 0ZM67.2321 43.3583C53.405 43.3583 43.3022 52.602 43.3018 62.7551C43.3018 72.9085 53.4047 82.1538 67.2321 82.1538C70.9447 82.1538 74.4449 81.4642 77.5618 80.2498L77.5695 80.2478C78.9295 79.7219 80.5039 79.4852 82.1245 79.7869L89.5755 81.1678L88.3537 77.3576C88.3448 77.3299 88.3367 77.302 88.3285 77.274C87.9996 76.1502 87.9034 74.9704 88.0468 73.8082C88.187 72.6725 88.5537 71.577 89.1229 70.5854C90.4533 68.19 91.1549 65.4959 91.1624 62.7551C91.162 52.602 81.0593 43.3583 67.2321 43.3583ZM39.8832 6.84615C21.1905 6.84646 6.83723 20.0334 6.83723 35.3724C6.83735 39.8241 8.02123 44.0484 10.149 47.8258C11.2137 49.7115 11.6457 52.0794 10.9337 54.4036L10.9357 54.4055L8.34841 62.8738L20.6069 60.4912C22.2758 60.1638 23.9332 60.3983 25.3832 61.0105C28.9294 62.4884 32.6748 63.4094 36.4859 63.7509C36.4719 63.4209 36.4646 63.089 36.4646 62.7551C36.465 47.7058 50.8484 36.5122 67.2321 36.5122C69.1484 36.5122 71.037 36.6669 72.8787 36.9615C72.9116 36.4364 72.9311 35.9069 72.9311 35.3724C72.9311 20.0333 58.5762 6.84615 39.8832 6.84615Z"/></svg>