<svg class="svgicon contact-phone" xmlns="http://www.w3.org/2000/svg" width="17" height="16" viewBox="0 0 17 16"><path fill-rule="evenodd" clip-rule="evenodd" d="M2.1645 0.686082C3.22539 -0.360385 4.97231 -0.174443 5.86059 1.00348L6.9607 2.45989C7.68423 3.41814 7.61972 4.75692 6.76108 5.60361L6.55361 5.80945C6.53008 5.89585 6.52769 5.98658 6.54664 6.07409C6.60156 6.42695 6.89881 7.17418 8.14363 8.40226C9.38844 9.63035 10.1468 9.9244 10.5077 9.97975C10.5987 9.99789 10.6926 9.99523 10.7823 9.97196L11.138 9.62083C11.9016 8.86842 13.0732 8.72745 14.0181 9.23684L15.6831 10.1363C17.1101 10.9043 17.4702 12.8277 16.3021 13.9805L15.0633 15.2017C14.6728 15.5866 14.148 15.9074 13.5082 15.9671C11.9304 16.1133 8.25434 15.9264 4.39 12.1151C0.7837 8.55707 0.0915541 5.45399 0.00351042 3.92494C-0.0400756 3.15177 0.32779 2.49794 0.796775 2.03611L2.1645 0.686082ZM4.81453 1.78098C4.37257 1.19548 3.54967 1.14878 3.08591 1.60628L1.71731 2.95544C1.42964 3.23912 1.29191 3.55219 1.30935 3.85143C1.37908 5.06654 1.93698 7.86606 5.31228 11.1957C8.85321 14.688 12.123 14.7926 13.387 14.675C13.6451 14.6517 13.9013 14.5185 14.1411 14.2824L15.3789 13.0603C15.8828 12.5639 15.772 11.6593 15.059 11.2753L13.394 10.3767C12.9337 10.1294 12.395 10.2107 12.0603 10.541L11.6636 10.9328L11.2016 10.4727C11.6636 10.9328 11.6628 10.9337 11.6619 10.9337L11.661 10.9354L11.6584 10.938L11.6523 10.9432L11.6392 10.9553C11.6024 10.9892 11.5628 11.0199 11.5207 11.047C11.4509 11.0928 11.3585 11.1438 11.2426 11.1862C11.0072 11.2736 10.6952 11.3203 10.3099 11.2615C9.55407 11.1464 8.55246 10.6353 7.22135 9.32246C5.8911 8.00962 5.37156 7.02196 5.25475 6.27301C5.1946 5.89074 5.24255 5.58113 5.33146 5.34762C5.3804 5.21622 5.45046 5.09355 5.53893 4.98438L5.56682 4.95411L5.57903 4.94114L5.58426 4.93595L5.58687 4.93335L5.58862 4.93162L5.83967 4.68428C6.21277 4.31499 6.26507 3.70354 5.91377 3.23739L4.81453 1.78098Z"/></svg>