<svg class="svgicon contact-map" xmlns="http://www.w3.org/2000/svg" width="15" height="17" viewBox="0 0 15 17"><path fill-rule="evenodd" clip-rule="evenodd" d="M7.22266 3.98154C8.98618 3.98154 10.4169 5.41109 10.417 7.17392C10.4169 8.93675 8.98618 10.3653 7.22266 10.3653C5.45934 10.3651 4.02939 8.9366 4.0293 7.17392C4.02939 5.41124 5.45934 3.98178 7.22266 3.98154ZM7.22266 5.45322C6.27226 5.45346 5.50205 6.22424 5.50195 7.17392C5.50204 8.1236 6.27225 8.8934 7.22266 8.89365C8.17327 8.89365 8.94424 8.12375 8.94434 7.17392C8.94424 6.22409 8.17326 5.45322 7.22266 5.45322Z"/><path fill-rule="evenodd" clip-rule="evenodd" d="M7.21289 9.03214e-05C9.1157 0.00969568 10.9385 0.769648 12.2842 2.11435C13.6299 3.45933 14.3907 5.2816 14.4004 7.18368C14.41 9.08571 13.6678 10.915 12.3359 12.2735L8.90137 15.7061C8.45611 16.1508 7.85196 16.4005 7.22266 16.4005C6.59355 16.4004 5.99008 16.1507 5.54492 15.7061L2.11621 12.2784C0.761816 10.9245 4.49097e-05 9.08851 0 7.17392C4.78572e-05 5.2593 0.761755 3.42233 2.11621 2.06845L2.11914 2.06454L2.12109 2.06357C3.48023 0.732425 5.31006 -0.00941985 7.21289 9.03214e-05ZM7.20605 1.47177C5.69087 1.46412 4.23356 2.05539 3.15137 3.11532C2.07647 4.1927 1.4727 5.65228 1.47266 7.17392C1.4727 8.69812 2.07797 10.1605 3.15625 11.2384L6.58496 14.6651C6.75396 14.834 6.98353 14.9287 7.22266 14.9288C7.4617 14.9288 7.69127 14.8338 7.86035 14.6651L11.2891 11.2384C12.3466 10.1573 12.9354 8.70256 12.9277 7.19052C12.9199 5.67644 12.3144 4.22607 11.2432 3.15536C10.1718 2.08479 8.72101 1.47948 7.20605 1.47177Z"/></svg>