<svg class="svgicon contact-mail" xmlns="http://www.w3.org/2000/svg" width="124" height="89" viewBox="0 0 124 89"><path d="M88.4017 23.7614C90.3389 22.4109 93.0101 22.8805 94.3662 24.8097C95.7216 26.7388 95.2503 29.3968 93.3135 30.7471L64.4552 50.8643C62.9809 51.892 61.0177 51.892 59.5434 50.8643L30.6851 30.7471C28.748 29.3968 28.2766 26.7389 29.6324 24.8097C30.9884 22.8806 33.6572 22.4112 35.5944 23.7614L61.9981 42.1664L88.4017 23.7614Z"/><path d="M115.438 15.7596C115.438 13.8423 114.672 12.0037 113.311 10.6477C111.949 9.2914 110.101 8.52891 108.175 8.52891H15.825C13.8993 8.52913 12.0535 9.29159 10.6918 10.6477C9.33012 12.0037 8.56449 13.8419 8.56428 15.7596V73.2404C8.56428 75.1584 9.32993 76.9985 10.6918 78.3548C12.0534 79.7103 13.8997 80.4733 15.825 80.4735H108.175C110.101 80.4735 111.949 79.711 113.311 78.3548C114.673 76.9985 115.438 75.1584 115.438 73.2404V15.7596ZM124 73.2404C124 77.4202 122.334 81.4297 119.366 84.3853C116.398 87.3408 112.372 89 108.175 89H15.825C11.6285 88.9998 7.60386 87.3401 4.63632 84.3853C1.6685 81.4297 0 77.4202 0 73.2404V15.7596C0.00021721 11.5801 1.66869 7.57255 4.63632 4.61717C7.60395 1.6618 11.6281 0.000216313 15.825 0H108.175C112.372 0 116.398 1.66161 119.366 4.61717C122.333 7.57247 124 11.5805 124 15.7596V73.2404Z"/></svg>