<svg class="svgicon contact-whatsapp" xmlns="http://www.w3.org/2000/svg" width="89" height="89" viewBox="0 0 89 89"><path d="M44.6789 0.000239833C20.2598 0.000239833 0.35779 19.8027 0.35779 44.0996C0.35779 51.8871 2.41508 59.4521 6.26131 66.1271L0 89L23.4799 82.859C29.9648 86.3745 37.2548 88.2435 44.6789 88.2435C69.098 88.2435 89 68.4411 89 44.1441C89 32.3517 84.3935 21.2712 76.0301 12.9497C71.9293 8.82949 67.0453 5.56257 61.6627 3.33934C56.2802 1.11611 50.5068 -0.018971 44.6789 0.000239833ZM44.7236 7.43172C54.5628 7.43172 63.7759 11.2587 70.7528 18.2007C74.1758 21.6072 76.8899 25.6522 78.7394 30.104C80.5889 34.5558 81.5376 39.327 81.5312 44.1441C81.5312 64.3471 64.9834 80.7675 44.6789 80.7675C38.0598 80.7675 31.5749 79.032 25.9397 75.65L24.598 74.8935L10.6442 78.5425L14.3563 65.0146L13.4618 63.5906C9.77008 57.754 7.81621 50.9959 7.82663 44.0996C7.87136 23.8967 24.3744 7.43172 44.7236 7.43172ZM28.9809 23.7187C28.2653 23.7187 27.0578 23.9857 26.0291 25.0982C25.0452 26.2107 22.1382 28.9252 22.1382 34.3096C22.1382 39.7386 26.1186 44.9451 26.6106 45.7016C27.2367 46.4581 34.4819 57.5831 45.6181 62.3001C48.2568 63.5016 50.3141 64.1691 51.9241 64.6586C54.5628 65.5041 56.9779 65.3706 58.901 65.1036C61.0477 64.7921 65.4306 62.4336 66.3698 59.8526C67.309 57.2716 67.309 55.0911 67.0407 54.6016C66.7276 54.1566 66.0121 53.8896 64.894 53.4001C63.7759 52.7771 58.3196 50.1071 57.3357 49.7511C56.307 49.3951 55.6809 49.2171 54.8312 50.2851C54.1156 51.3976 51.9688 53.8896 51.3427 54.6016C50.6719 55.3581 50.0457 55.4471 48.9724 54.9131C47.8095 54.3346 44.2317 53.1776 40.0276 49.4396C36.7181 46.5026 34.5266 42.8981 33.8558 41.7856C33.3191 40.7176 33.8111 40.0501 34.3477 39.5606C34.8397 39.0711 35.5553 38.2701 36.0025 37.6026C36.5839 36.9796 36.7628 36.4901 37.1206 35.7781C37.4784 35.0216 37.2995 34.3986 37.0312 33.8646C36.7628 33.3751 34.5266 27.8572 33.5874 25.6767C32.693 23.5407 31.7985 23.8077 31.0829 23.7632C30.4568 23.7632 29.7412 23.7187 28.9809 23.7187Z"/></svg>