<svg class="svgicon svgicon-location" xmlns="http://www.w3.org/2000/svg" width="17" height="20" viewBox="0 0 17 20"><path d="M8.51457 0.000111754C10.7615 0.0117877 12.9134 0.935238 14.5022 2.56992C16.091 4.20463 16.9885 6.41862 16.9999 8.73041C17.0112 11.0421 16.1354 13.2651 14.5628 14.9162L10.3943 19.205C9.8992 19.7142 9.22773 20 8.52771 20C7.82767 20 7.15619 19.7142 6.66111 19.205L2.4977 14.921C0.898523 13.2755 1.64858e-05 11.0439 0 8.71689C0 6.38988 0.898508 4.15789 2.4977 2.51236L2.50236 2.50757C4.10714 0.889562 6.26774 -0.0115478 8.51457 0.000111754ZM1.30204 8.71689C1.30206 10.6886 2.06329 12.5795 3.41829 13.9738L7.58169 18.2574C7.83262 18.5155 8.1729 18.6603 8.52771 18.6604C8.88251 18.6604 9.22278 18.5155 9.47372 18.2574L13.6371 13.9738C14.9669 12.5753 15.7075 10.6936 15.6978 8.73695C15.6882 6.77819 14.9274 4.9026 13.5812 3.51752C12.235 2.13245 10.412 1.34968 8.50821 1.33975C6.60433 1.32985 4.77342 2.09369 3.41363 3.46476C2.06157 4.85859 1.30204 6.74746 1.30204 8.71689Z"/><path d="M10.8606 8.71683C10.8606 7.39125 9.8162 6.31665 8.52782 6.31665C7.23943 6.31665 6.19499 7.39125 6.19499 8.71683C6.19499 10.0424 7.23943 11.117 8.52782 11.117C9.8162 11.117 10.8606 10.0424 10.8606 8.71683ZM12.1627 8.71683C12.1627 10.7823 10.5353 12.4566 8.52782 12.4566C6.52033 12.4566 4.89295 10.7823 4.89295 8.71683C4.89295 6.65139 6.52033 4.97702 8.52782 4.97702C10.5353 4.97702 12.1627 6.65139 12.1627 8.71683Z"/></svg>