<svg class="svgicon svgicon-ribbon" xmlns="http://www.w3.org/2000/svg" width="999" height="422" viewBox="0 0 999 422"><path d="M777.85 79.71C780.69 106.77 802.34 156.62 841.25 181.59C866.52 224.08 852.09 266.21 825.47 288.81C785.95 322.39 720.37 327.42 632.49 315.98C490.53 297.55 346.18 237.15 209.97 155.53C133.79 109.92 63.68 52.37 25.57 0H0C28.88 63.84 94.24 154.91 210.5 232.29C348.47 324.12 560.61 431.24 754.69 421.32C898.52 413.92 910.44 332 905.05 281.62C902.21 254.56 880.56 204.71 841.65 179.74C816.38 137.25 830.81 95.12 857.43 72.52C888.74 45.92 936.43 37.25 998.59 40.47V0H792.87C776.58 26.32 775.35 56.4 777.85 79.71Z"/></svg>