<svg class="logo" xmlns="http://www.w3.org/2000/svg" width="148" height="55" viewBox="0 0 148 55"><style>.color-black{fill:#231f20}.color-red{fill:#ed1c24}</style><path d="M0 30.9126C0.336281 30.852 0.779987 30.824 1.24237 30.824C2.02236 30.824 2.53145 30.9686 2.91911 31.2579C3.34413 31.5705 3.61035 32.0698 3.61035 32.793C3.61035 33.5723 3.32545 34.1135 2.93779 34.4448C2.5081 34.8041 1.84955 34.9721 1.04621 34.9721C0.569812 34.9721 0.224188 34.9441 0 34.9114V30.9126ZM0.920103 34.2395C0.999503 34.2582 1.13028 34.2582 1.24237 34.2582C2.08308 34.2628 2.6342 33.8056 2.6342 32.8304C2.6342 31.9811 2.13912 31.5332 1.33578 31.5332C1.13495 31.5332 0.994833 31.5519 0.920103 31.5705V34.2395Z" class="color-red"/><path d="M6.54815 35.0001C5.34314 35.0001 4.62854 34.0855 4.62854 32.9237C4.62854 31.7012 5.41787 30.7866 6.61353 30.7866C7.8092 30.7866 8.55182 31.7245 8.55182 32.849C8.55182 34.1928 7.74848 34.9954 6.55281 34.9954H6.54815V35.0001ZM6.59952 34.2675C7.22538 34.2675 7.58034 33.6796 7.58034 32.8817C7.58034 32.1491 7.23472 31.5192 6.59952 31.5192C5.96432 31.5192 5.60469 32.1351 5.60469 32.9004C5.60469 33.6656 5.97366 34.2675 6.59018 34.2675H6.59952Z" class="color-red"/><path d="M12.3864 31.6265H11.2841V30.8519H14.4227V31.6265H13.3065V34.9301H12.3864V31.6265Z" class="color-red"/><path d="M16.3984 30.8519V32.4244H17.921V30.8519H18.8411V34.9301H17.921V33.2316H16.3984V34.9301H15.4783V30.8519H16.3984Z" class="color-red"/><path d="M22.6803 33.2083H21.1764V34.1788H22.8531V34.9347H20.2563V30.8566H22.769V31.6125H21.1764V32.4617H22.6803V33.213V33.2083Z" class="color-red"/><path d="M25.9217 30.9126C26.1646 30.866 26.6503 30.824 27.1127 30.824C27.6778 30.824 28.0234 30.8799 28.3177 31.0526C28.6026 31.2019 28.8034 31.4819 28.8034 31.8551C28.8034 32.2284 28.5933 32.5457 28.1355 32.7184V32.7324C28.6026 32.8537 28.9482 33.2083 28.9482 33.7356C28.9482 34.1089 28.7801 34.4028 28.5232 34.5988C28.2289 34.8368 27.7292 34.9674 26.9165 34.9674C26.4635 34.9674 26.1225 34.9394 25.917 34.9068V30.9079L25.9217 30.9126ZM26.8371 32.4711H27.1407C27.6311 32.4711 27.888 32.2704 27.888 31.9671C27.888 31.6639 27.6498 31.4959 27.2341 31.4959C27.0286 31.4959 26.9118 31.5099 26.8418 31.5285V32.4711H26.8371ZM26.8371 34.2815C26.9259 34.3002 27.0379 34.3002 27.1967 34.3002C27.6124 34.3002 27.9861 34.1369 27.9861 33.7076C27.9861 33.2783 27.6171 33.1337 27.1547 33.1337H26.8418V34.2815H26.8371Z" class="color-red"/><path d="M32.6053 33.2083H31.106V34.1788H32.7828V34.9347H30.1859V30.8566H32.6987V31.6125H31.106V32.4617H32.6053V33.213V33.2083Z" class="color-red"/><path d="M34.0298 33.9829C34.2727 34.1089 34.6603 34.2348 35.0527 34.2348C35.4777 34.2348 35.7019 34.0575 35.7019 33.7916C35.7019 33.5256 35.5057 33.3903 35.0153 33.2223C34.3381 32.9797 33.8897 32.6064 33.8897 32.0138C33.8897 31.3186 34.4782 30.7913 35.4356 30.7913C35.9027 30.7913 36.2343 30.8799 36.4772 30.9966L36.2717 31.7338C36.1129 31.6545 35.8186 31.5425 35.4216 31.5425C35.0246 31.5425 34.8285 31.7292 34.8285 31.9345C34.8285 32.1958 35.0527 32.3078 35.5851 32.5084C36.309 32.7744 36.6406 33.1523 36.6406 33.7262C36.6406 34.4122 36.1175 34.9907 34.9966 34.9907C34.5296 34.9907 34.0718 34.8647 33.8383 34.7388L34.0251 33.9829H34.0298Z" class="color-red"/><path d="M38.6303 31.6265H37.5281V30.8519H40.6667V31.6265H39.5504V34.9301H38.6303V31.6265Z" class="color-red"/><path d="M55.8787 27.5997C51.3109 29.6154 48.2844 34.7108 47.6118 37.5711C46.3881 42.7691 46.5563 51.4899 61.5161 54.1496C81.6977 57.7331 105.307 49.3155 120.959 41.5185C136.708 33.6749 145.11 22.8357 147.828 16.6112C148.524 15.0154 146.918 14.5721 146.338 15.7106C142.999 21.8091 132.896 28.7196 122.028 33.5023C106.699 40.2494 90.8006 44.6681 75.7007 44.7381C66.3502 44.7801 59.5545 43.3943 55.8554 39.3628C53.3006 36.5772 52.3525 31.8038 55.8834 27.5997H55.8787Z" class="color-red"/><path fill-rule="evenodd" clip-rule="evenodd" d="M6.12779 7.40036C5.50193 7.40036 3.29275 7.55434 2.12978 7.68032C1.54596 7.74098 1.16297 7.78298 1.0789 8.52022C1.06489 8.64154 1.08825 8.73019 1.14897 8.79552C1.23771 8.8935 1.37782 8.8935 1.42453 8.8935C1.52728 8.8935 1.80752 8.87017 2.10643 8.84684C2.38667 8.82351 2.67157 8.80017 2.76498 8.80017C3.23671 8.80017 3.51695 8.87484 3.6664 9.04282C3.78784 9.1828 3.83454 9.39743 3.79718 9.69606C3.71311 10.4286 2.91444 12.7383 2.07374 15.1833C1.12094 17.9363 0.140123 20.7779 0.0186877 21.8231C-0.0467003 22.4204 0.065394 22.887 0.35497 23.209C0.723945 23.6196 1.35447 23.8109 2.3493 23.8109C3.73179 23.8109 5.44122 23.4376 6.34731 23.2183L6.38467 23.2043C7.06658 22.9943 7.27675 22.929 7.34681 22.2897C7.35615 22.1871 7.37017 22.0611 7.29077 21.9678C7.23939 21.9118 7.16466 21.8838 7.07125 21.8838C6.99652 21.8838 6.83772 21.9305 6.47808 22.0331C6.37066 22.0658 6.27725 22.0938 6.23522 22.1031C5.91295 22.1824 5.55332 22.2244 5.15632 22.2244C4.66591 22.2244 4.36699 22.1498 4.2222 21.9818C4.10077 21.8465 4.05873 21.6225 4.0961 21.2959C4.26424 19.8074 6.30994 13.9422 7.08526 11.8051L7.09927 11.7724C7.97267 9.23411 8.06141 8.96815 8.10345 8.61353C8.14081 8.29157 8.07076 8.03028 7.89327 7.83431C7.53364 7.43303 6.82838 7.40036 6.13713 7.40036H6.12779Z" class="color-black"/><path fill-rule="evenodd" clip-rule="evenodd" d="M24.5345 7.40036C23.068 7.40036 21.6995 8.18426 21.2511 8.44556L21.1951 8.47821C19.8686 9.29477 18.1732 10.7926 17.5614 11.4178C17.3372 11.6511 17.113 11.8704 16.9635 11.8704C16.9448 11.8704 16.9308 11.8424 16.9355 11.7818C16.9448 11.6931 17.1036 11.1939 17.2531 10.7086C17.5147 9.8827 17.8089 8.94016 17.8463 8.6182C17.8836 8.30558 17.8089 8.04894 17.6361 7.85296C17.2811 7.45635 16.5805 7.40503 15.9453 7.40503C14.7357 7.40503 12.746 7.59167 11.9006 7.71766C11.3075 7.81565 11.0646 7.88096 10.9899 8.52488C10.9805 8.6042 10.9805 8.71152 11.0459 8.78617C11.1206 8.87016 11.2327 8.87017 11.3682 8.87017C11.4709 8.87017 11.7605 8.84684 12.0641 8.82351C12.349 8.80018 12.6479 8.77685 12.7413 8.77685C13.2457 8.77685 13.568 8.86084 13.7268 9.03815C13.8389 9.16413 13.8763 9.35077 13.8483 9.6074C13.6895 10.9932 11.1814 18.5429 10.1071 21.7671C9.67743 23.0643 9.64474 23.153 9.64474 23.1903C9.62606 23.3396 9.65408 23.4516 9.72881 23.5309C9.82689 23.6429 9.98569 23.6569 10.1071 23.6569C10.5835 23.6569 11.9754 23.4329 12.5685 23.3396L12.732 23.3163C13.3905 23.209 13.4839 23.027 13.7689 21.9398C13.909 21.4079 14.6609 18.7669 15.5156 16.5272C17.0896 12.3324 20.5552 10.172 21.6901 10.172C21.905 10.172 22.0638 10.228 22.1619 10.3353C22.3067 10.4986 22.302 10.7646 22.288 10.9092C22.1665 11.9638 21.1063 15.3793 20.2563 18.123C19.8219 19.5228 19.4483 20.7313 19.2895 21.3239C18.9205 22.7237 19.0466 23.9182 19.6444 24.6881C20.1348 25.3227 20.9148 25.6446 21.9564 25.6446C22.1712 25.6446 22.4047 25.6306 22.6383 25.6026C23.2268 25.5326 24.0862 25.388 24.8008 24.9121C24.9595 24.8047 25.0997 24.6228 25.0483 24.4594C25.0249 24.3895 24.9549 24.2728 24.7214 24.2728C23.2828 24.2728 23.1147 22.6864 23.1007 22.2011C23.068 21.2445 24.0862 17.871 24.9829 14.894C25.6975 12.5283 26.3701 10.298 26.4635 9.45809C26.5289 8.86083 26.3981 8.35224 26.0711 7.99295C25.7302 7.61034 25.1978 7.4097 24.5252 7.4097L24.5345 7.40036Z" class="color-black"/><path fill-rule="evenodd" clip-rule="evenodd" d="M86.0506 7.9043C86.0693 7.75965 86.0974 7.49368 85.8124 7.43769C85.5089 7.37703 83.7107 7.28838 83.5425 7.27905C82.4029 7.22306 81.693 7.18105 81.5202 6.97574C81.4641 6.91042 81.4501 6.80777 81.4688 6.63513C81.4922 6.42982 81.8985 5.02067 82.5103 3.92881C83.2203 2.68297 84.2431 2.08106 85.6396 2.08106C85.8171 2.08106 85.9993 2.09039 86.1861 2.10905C86.6952 2.16038 88.1244 2.59433 88.0403 3.84949L88.031 4.00814L88.1944 3.99881C90.7166 3.85883 91.0108 2.84163 91.0201 2.40769C91.0435 1.33916 89.647 0.261295 88.031 0.0979832L87.9095 0.0839856C87.5499 0.0466571 87.1062 0 86.5738 0C84.7429 0 83.1175 0.555258 81.5996 1.68911C78.9934 3.63952 78.1013 5.59927 77.723 6.43449L77.667 6.5558C77.4288 7.06907 77.3494 7.24172 75.6166 7.36303H75.5512C74.2154 7.45635 73.8978 7.47501 73.7951 8.38956C73.781 8.52021 73.767 8.63219 73.8511 8.72551C73.9679 8.86083 74.178 8.8655 74.9627 8.88883H75.0514C76.0696 8.92616 76.6348 8.94949 76.7749 9.1128C76.8263 9.1688 76.8356 9.27145 76.8169 9.44409C76.7609 9.96202 74.164 19.1448 73.4401 20.8713C71.8101 24.7581 67.7794 27.5437 65.1171 28.1363C64.1784 28.3463 62.8799 28.4583 61.9225 28.1363C61.0818 27.8563 60.4933 27.5297 60.185 26.8298C59.6806 27.4177 59.2836 28.4676 59.4003 29.7041C59.8207 34.1135 63.3236 34.7574 66.7985 33.6376C71.6606 32.0698 74.2294 27.763 76.1303 23.3909C76.971 21.4592 78.3255 16.7045 80.1657 10.7413C80.6375 9.20612 80.7449 9.02414 81.2119 8.94482C81.3847 8.92149 84.4159 8.88417 84.7896 8.88417C85.7144 8.88417 85.9572 8.84684 86.0646 7.8903L86.0506 7.9043Z" class="color-black"/><path fill-rule="evenodd" clip-rule="evenodd" d="M52.6 7.1624C50.8906 7.1624 49.0597 7.59634 47.4437 8.3849C43.1981 10.452 41.3532 15.16 41.0637 18.5662C40.9095 20.358 41.2085 21.6318 41.9744 22.4624C42.6844 23.2369 43.782 23.6102 45.3232 23.6102C48.3171 23.6102 50.7738 22.1824 51.5771 21.7112L51.6472 21.6692L51.6799 21.6458C51.9648 21.4545 52.3992 21.1652 52.4832 20.1947C52.4926 20.0874 52.4692 20.0034 52.4132 19.9427C52.3758 19.9054 52.3104 19.8541 52.1983 19.8541C52.0909 19.8541 51.9321 19.9474 51.3343 20.358C51.1848 20.4607 51.054 20.554 50.9886 20.5866C49.2092 21.7391 48.1863 21.8931 47.4203 21.8931C46.6544 21.8931 46.1172 21.6785 45.7296 21.2539C45.1644 20.638 44.9543 19.6021 45.085 18.081C45.2158 16.5552 45.2532 16.4432 45.3279 16.2285C45.5848 15.608 45.6595 15.5286 46.6917 15.51C51.778 15.4166 55.1361 13.0276 55.4537 9.28545C55.5004 8.73485 55.3603 8.27757 55.038 7.92295C54.7111 7.56833 54.0245 7.1484 52.5953 7.1484L52.6 7.1624ZM51.8667 9.67739C51.6472 12.2577 49.4567 14.1381 46.5423 14.2455H46.4769C46.248 14.2455 46.1686 14.1941 46.1406 14.1661C46.1313 14.1568 46.1032 14.1242 46.1079 14.0308C46.1639 13.3543 48.191 8.80951 50.7364 8.80951C50.9419 8.80951 51.451 8.84217 51.7079 9.12213C51.834 9.26211 51.8854 9.44409 51.8667 9.67739Z" class="color-black"/><path fill-rule="evenodd" clip-rule="evenodd" d="M37.8176 22.3317C37.6542 22.3317 36.9956 22.4717 36.9349 22.4904C36.267 22.6164 35.5337 22.6724 35.1321 22.6724C34.3708 22.6724 33.829 22.5044 33.5254 22.1731C33.2592 21.8838 33.1564 21.4732 33.2031 20.9086C33.2732 20.1107 35.1694 13.6902 36.7434 8.39423C37.0937 8.31957 37.444 8.24025 37.7943 8.1656C39.9474 7.69432 41.386 7.21372 42.8478 7.21372C44.0388 7.21372 44.3518 7.40502 44.3891 7.91362C45.6782 7.3257 46.7151 5.8139 46.0425 4.69405C45.7296 4.17612 44.5853 3.79816 43.016 4.13412C41.6428 4.42808 39.0927 5.63659 37.4346 6.07987C38.3641 2.95828 38.8498 1.31116 38.8638 1.14785C38.8732 1.0172 38.8452 0.914551 38.7751 0.835228C38.7004 0.751239 38.5836 0.713906 38.4201 0.713906C38.2567 0.713906 36.8228 1.00787 36.6173 1.05453C35.6645 1.21318 35.1647 1.37181 35.0013 1.56779L34.9873 1.58646L34.9779 1.60512C34.9592 1.64712 34.1746 4.19011 33.1938 7.44702C32.227 7.65233 31.2695 7.75965 30.1766 7.75965C29.5554 7.75965 28.8828 7.72699 28.1262 7.657L27.8646 7.63366L27.9861 7.86696C28.4531 8.76284 29.504 9.19679 31.1994 9.19679C31.6665 9.19679 32.1709 9.16413 32.694 9.10813C31.0967 14.4228 29.2378 20.7499 29.1631 21.5945C29.1023 22.3131 29.2752 22.901 29.6722 23.3349C30.3541 24.0722 31.5637 24.2261 32.4605 24.2261C32.9509 24.2261 34.7351 24.1842 37.0517 23.6336C37.813 23.4469 38.0418 23.3909 38.1025 22.6397C38.1025 22.607 38.1166 22.4997 38.0371 22.4157C37.9858 22.3597 37.911 22.3317 37.8083 22.3317H37.8176Z" class="color-black"/><path fill-rule="evenodd" clip-rule="evenodd" d="M60.8109 21.7718C60.9276 21.1699 61.3713 19.6301 61.731 18.3889L61.7496 18.3143C63.2115 13.4242 66.2194 10.8206 67.8261 10.8206C67.8681 10.8206 67.9055 10.8206 67.9475 10.8252C68.4473 10.8766 68.8209 11.0725 69.0591 11.4225C69.372 11.8798 69.3674 12.463 69.2599 12.8596L69.1805 13.1443L69.4514 13.0276C71.2963 12.2484 72.1183 10.2187 71.8288 8.78617C71.6419 7.87629 71.0161 7.33037 70.152 7.33037C70.0493 7.33037 69.9418 7.33971 69.8297 7.35371C69.0778 7.45636 68.1717 7.8483 67.3403 8.43622C66.2708 9.24345 65.2245 10.2653 64.2437 11.4598L64.127 11.5951C63.9728 11.7725 63.6833 12.0991 63.5945 12.1224C63.5945 12.1224 63.5712 12.0991 63.5805 12.0011C63.5899 11.8844 63.7533 11.3012 63.9121 10.7413C64.1503 9.89203 64.4259 8.92615 64.4539 8.59486C64.4819 8.29157 64.4025 8.03962 64.2251 7.84831C63.8514 7.44236 63.1228 7.38636 62.4549 7.38636C61.8991 7.38636 59.802 7.50768 58.4195 7.72698C57.8404 7.81564 57.5508 7.86229 57.4994 8.50621C57.4994 8.5482 57.4854 8.67419 57.5648 8.75818C57.6349 8.8375 57.7376 8.84684 57.817 8.84684C57.9338 8.84684 58.2374 8.8235 58.5597 8.80017C58.8632 8.77684 59.1762 8.75352 59.2836 8.75352C59.774 8.75352 60.0589 8.82817 60.2084 8.99148C60.3298 9.12213 60.3765 9.32744 60.3485 9.6214C60.2551 10.7133 59.0641 14.9967 56.8035 22.3597C56.6509 22.8543 56.5747 23.1094 56.5747 23.125C56.5653 23.2603 56.598 23.3676 56.6727 23.4469C56.8035 23.5869 57.0137 23.5869 57.1164 23.5869C57.1772 23.5869 59.1435 23.4376 59.8627 23.2416C60.4092 23.1296 60.54 22.9243 60.8062 21.7671L60.8109 21.7718Z" class="color-black"/><path fill-rule="evenodd" clip-rule="evenodd" d="M8.83672 2.13239C8.54714 1.5398 8.05207 1.11051 7.44022 0.92387C7.22538 0.858545 7.00119 0.825887 6.777 0.825887C5.71678 0.825887 4.7453 1.57712 4.41369 2.65032C4.00268 3.98947 4.69393 5.38929 5.95031 5.77191C6.16516 5.83723 6.38934 5.86989 6.61353 5.86989C7.67375 5.86989 8.64523 5.11866 8.97684 4.0408C9.173 3.39689 9.1263 2.71564 8.83672 2.12305V2.13239Z" class="color-black"/><path fill-rule="evenodd" clip-rule="evenodd" d="M125.008 20.596C124.891 21.0486 124.765 21.5898 124.718 22.0238C124.653 22.621 124.765 23.0923 125.064 23.4236C125.396 23.7969 125.947 23.9835 126.699 23.9835C127.778 23.9835 129.823 23.6849 130.986 23.3583C131.486 23.2276 131.752 23.125 131.827 22.4624C131.841 22.3457 131.818 22.2431 131.757 22.1731C131.72 22.1311 131.654 22.0844 131.547 22.0844C131.421 22.0844 130.832 22.2197 130.743 22.2431C130.655 22.2711 129.968 22.3924 129.506 22.3924C129.043 22.3924 128.772 22.3084 128.614 22.1264C128.464 21.9584 128.417 21.6925 128.464 21.2772C128.642 19.7141 129.721 16.1725 131.668 10.7552C132.495 11.2265 133.312 11.9498 132.868 12.8316L132.742 13.0789L133.018 13.037C134.256 12.8503 135.208 12.1037 135.381 11.1799C135.54 10.354 135.054 9.54674 134.059 8.96349C133.779 8.80017 133.256 8.63687 132.499 8.47356C132.798 7.657 133.079 6.90576 133.317 6.26651C134.386 3.39688 134.685 2.53833 134.746 1.98307C134.769 1.7731 134.774 1.4698 134.55 1.21783C134.26 0.895876 133.662 0.741901 132.719 0.741901C132.084 0.741901 129.823 0.867887 128.586 1.02187H128.539C128.1 1.08719 127.651 1.14785 127.581 1.76844C127.567 1.88042 127.595 1.97374 127.656 2.04373C127.759 2.16039 127.941 2.17438 128.086 2.17438C128.109 2.17438 128.259 2.16505 128.459 2.15571C128.81 2.13705 129.342 2.11372 129.487 2.11372C130.057 2.11372 130.398 2.18838 130.533 2.3377C130.617 2.43102 130.636 2.57099 130.608 2.82296C130.552 3.31289 129.529 6.49981 129.258 7.28837C129.115 7.72076 128.721 7.93696 128.076 7.93696C125.003 7.93696 123.256 8.72551 122.21 9.32277C117.231 12.2624 116.106 17.7497 115.854 19.9754C115.681 21.4825 115.882 22.593 116.447 23.2743C116.83 23.7362 117.376 23.9928 118.067 24.0395C118.18 24.0488 118.292 24.0535 118.404 24.0535C121.664 24.0535 124.415 20.652 125.578 18.5896L125.19 19.9567C125.143 20.12 125.083 20.344 125.017 20.6006M127.969 10.5406C127.226 14.9127 122.948 20.9879 120.562 21.0299C120.342 21.0299 120.179 20.9693 120.062 20.8386C119.735 20.47 119.828 19.6394 119.884 19.1448C120.244 15.9906 122.192 10.6293 125.891 9.68673C126.288 9.58408 126.633 9.53275 126.923 9.53275C127.339 9.53275 127.633 9.6354 127.806 9.83604C128.016 10.0833 127.983 10.4146 127.964 10.5453L127.969 10.5406Z" class="color-black"/><path fill-rule="evenodd" clip-rule="evenodd" d="M95.2844 9.26678C93.9673 9.23878 92.3232 10.1253 91.4452 10.9886C91.4452 10.9886 91.3704 11.1005 91.4311 11.1845C91.4919 11.2685 91.5993 11.2219 91.5993 11.2219C93.3928 10.6386 94.6912 11.5298 95.0415 13.0416C95.4478 14.7961 94.4203 17.9223 92.7576 20.0127C91.6927 21.3472 90.5157 22.0844 89.4368 22.0844C89.0585 22.0844 88.6848 21.9958 88.3299 21.8185C87.3397 21.3285 86.9007 20.1854 86.9474 18.2256C87.0034 15.9112 87.8301 12.659 89.9879 10.48C91.6226 8.82817 93.7337 7.80164 95.4899 7.80164C96.0503 7.80164 96.5454 7.80165 96.9658 8.05361C96.7416 7.04575 95.7187 6.63513 94.3829 6.63513C92.2905 6.63513 89.0538 7.87629 86.9054 10.6059C85.4948 12.3977 84.3692 14.6981 83.8882 16.7558C83.3044 19.2848 83.6593 21.3612 84.925 22.7657C85.6163 23.5356 86.6205 23.9275 87.9002 23.9275C89.8058 23.9275 91.6367 23.0643 91.8375 22.9663C95.1116 21.3752 98.0167 17.801 98.9041 14.2781C99.2076 13.065 99.0395 12.0151 98.848 11.3478C98.2782 9.39744 96.6855 9.29477 95.2844 9.26678Z" class="color-black"/><path fill-rule="evenodd" clip-rule="evenodd" d="M111.51 9.26678C110.193 9.23878 108.549 10.1253 107.671 10.9886C107.671 10.9886 107.596 11.1005 107.657 11.1845C107.722 11.2685 107.825 11.2219 107.825 11.2219C109.618 10.6386 110.917 11.5298 111.267 13.0416C111.673 14.7961 110.646 17.9223 108.983 20.0127C107.918 21.3472 106.741 22.0844 105.662 22.0844C105.284 22.0844 104.91 21.9958 104.555 21.8185C103.565 21.3285 103.126 20.1854 103.173 18.2256C103.229 15.9112 104.056 12.659 106.214 10.48C107.848 8.82817 109.959 7.80164 111.715 7.80164C112.276 7.80164 112.771 7.80165 113.196 8.05361C112.972 7.04575 111.949 6.63513 110.618 6.63513C108.521 6.63513 105.289 7.87629 103.136 10.6059C101.725 12.3977 100.599 14.6981 100.123 16.7558C99.5393 19.2848 99.8942 21.3612 101.16 22.7657C101.856 23.5356 102.855 23.9275 104.135 23.9275C106.041 23.9275 107.872 23.0643 108.072 22.9663C111.346 21.3752 114.252 17.801 115.139 14.2781C115.443 13.065 115.274 12.0151 115.083 11.3478C114.513 9.39744 112.92 9.29477 111.519 9.26678H111.51Z" class="color-black"/></svg>