<svg class="svgicon svgicon-check" xmlns="http://www.w3.org/2000/svg" width="20" height="17" viewBox="0 0 20 17"><path d="M16.3809 0.826154C17.0291 -0.0679486 18.2795 -0.267168 19.1738 0.380841C20.0679 1.02903 20.2672 2.2795 19.6192 3.17381L12.0967 13.5556C11.6106 14.2261 11.1744 14.8312 10.7754 15.2949C10.3665 15.77 9.85964 16.2647 9.16603 16.5849H9.16407C8.1738 17.0409 7.05881 17.1247 6.01271 16.8183L6.0088 16.8174C5.27232 16.6002 4.70076 16.1798 4.23146 15.7666C3.77409 15.3639 3.26282 14.8276 2.6963 14.2353L0.554699 11.9961C-0.208535 11.198 -0.180625 9.93241 0.617199 9.16893C1.4154 8.40542 2.68181 8.43322 3.44532 9.23143L5.58693 11.4697C6.20161 12.1123 6.57646 12.5018 6.87501 12.7646C7.03754 12.9077 7.12546 12.9646 7.15724 12.9834C7.2625 13.0098 7.37058 13.0016 7.4756 12.957C7.50241 12.9365 7.58691 12.8671 7.74318 12.6855C8.00773 12.3781 8.33045 11.9348 8.85743 11.208L16.3809 0.826154Z"/></svg>