<svg class="svgicon svgicon-home" xmlns="http://www.w3.org/2000/svg" width="16" height="16" viewBox="0 0 16 16"><path d="M10.1968 9.60184C10.1968 9.17064 9.85032 8.82063 9.42267 8.82063H6.81511C6.38745 8.82063 6.04098 9.17063 6.04097 9.60184L6.04028 14.6909H10.1968V9.60184ZM15.9968 13.558C15.9656 14.1929 15.702 14.7953 15.2546 15.2471C14.7773 15.7289 14.1299 15.9997 13.4548 16H2.54607C1.13966 16 0 14.8499 0 13.4307V7.79694L0.00136653 7.70248C0.0145722 7.23117 0.121061 6.76692 0.314985 6.33725C0.521838 5.87895 0.82338 5.47051 1.19936 5.13935L1.19981 5.13889L6.32862 0.631128L6.32885 0.630899L6.41722 0.556662C6.86648 0.196878 7.4241 1.72715e-05 7.99989 0C8.57571 0 9.13349 0.196839 9.58278 0.556662L9.67115 0.630899L9.67138 0.631128L14.8 5.13981L14.8004 5.14027L14.8701 5.20325C15.2137 5.52255 15.4906 5.90823 15.6846 6.33771C15.8914 6.79583 15.9991 7.29328 16 7.79671V13.4307L15.9968 13.558ZM11.4941 14.6909H13.4544C13.7855 14.6907 14.1031 14.5578 14.3372 14.3215C14.5565 14.1 14.6858 13.8045 14.7011 13.4932L14.7027 13.4307V7.79901L14.6993 7.68041C14.6842 7.40421 14.618 7.13294 14.5041 6.88059C14.374 6.59233 14.1844 6.33532 13.9479 6.12696L8.81958 1.6185L8.7763 1.58219C8.55593 1.4057 8.28232 1.30914 7.99989 1.30914C7.6988 1.30916 7.40765 1.41871 7.18042 1.61804L7.18065 1.61827L2.05207 6.12604C1.81553 6.33448 1.62583 6.5915 1.49567 6.8799C1.36544 7.16843 1.2978 7.48173 1.29729 7.79878V13.4307C1.29729 14.1269 1.85613 14.6908 2.54607 14.6909H4.74299L4.74368 9.60184C4.74369 8.44813 5.67046 7.51148 6.81511 7.51148H9.42267C10.5673 7.51149 11.4941 8.44813 11.4941 9.60184V14.6909Z"/></svg>