<svg class="svgicon svgicon-job" xmlns="http://www.w3.org/2000/svg" width="13" height="13" viewBox="0 0 13 13"><path fill-rule="evenodd" clip-rule="evenodd" d="M9.74536 7.00962C10.1034 7.0097 10.4586 7.08094 10.7889 7.2193C11.1192 7.35783 11.419 7.56182 11.6702 7.81722C11.9213 8.07267 12.1205 8.37576 12.2534 8.70837C12.3861 9.04087 12.451 9.39718 12.445 9.75515C12.4366 10.2503 12.2892 10.728 12.0306 11.141L12.8153 11.9257C13.0609 12.1708 13.0617 12.5692 12.8169 12.8152C12.5717 13.0609 12.1733 13.0618 11.9274 12.8168L11.1312 12.0223C10.7155 12.2714 10.2378 12.4088 9.74536 12.4089C9.03744 12.4089 8.35817 12.1303 7.8533 11.6341C7.34842 11.1377 7.05768 10.4631 7.04569 9.75515C7.03968 9.39699 7.10613 9.04103 7.23899 8.70837C7.37188 8.37587 7.56952 8.07258 7.82054 7.81722C8.07171 7.5619 8.37154 7.35776 8.70186 7.2193C9.03213 7.08098 9.3873 7.00964 9.74536 7.00962ZM9.74536 8.26771C9.55442 8.26773 9.36455 8.30544 9.18839 8.37911C9.01225 8.45293 8.85225 8.56248 8.71824 8.69854C8.58417 8.83489 8.47799 8.99769 8.40699 9.17524C8.33615 9.35276 8.3006 9.54275 8.30379 9.73385C8.3102 10.1119 8.46502 10.4729 8.73462 10.738C9.00418 11.0028 9.3675 11.1508 9.74536 11.1508C10.1231 11.1507 10.4867 11.0028 10.7561 10.738C11.0254 10.473 11.1805 10.1117 11.1869 9.73385C11.1901 9.54274 11.1546 9.35276 11.0837 9.17524C11.0128 8.99776 10.9081 8.83489 10.7741 8.69854C10.6401 8.56221 10.4786 8.45308 10.3023 8.37911C10.1262 8.30539 9.93628 8.2678 9.74536 8.26771Z"/><path fill-rule="evenodd" clip-rule="evenodd" d="M6.28231 8.61634e-06C6.72693 8.61634e-06 7.11558 -0.00151591 7.43393 0.0360477C7.76992 0.0757776 8.09126 0.165053 8.38406 0.383334C8.67484 0.600705 8.85413 0.885068 8.99345 1.19585C9.10393 1.44237 9.20427 1.74469 9.31617 2.09028C9.51001 2.10292 9.69182 2.11945 9.86167 2.1427C10.5414 2.23582 11.1238 2.4381 11.5866 2.90935C12.2869 3.62263 12.3875 4.63115 12.4139 5.89896C12.4211 6.24607 12.145 6.53352 11.798 6.54111C11.4506 6.54834 11.163 6.27251 11.1558 5.92517C11.1282 4.60026 10.9948 4.10223 10.6889 3.79067C10.4978 3.5961 10.2271 3.46272 9.6913 3.38932C9.136 3.31327 8.39756 3.31233 7.32745 3.31233H5.09465C4.02419 3.31233 3.28441 3.31325 2.72916 3.38932C2.19402 3.46274 1.92263 3.59611 1.73153 3.79067C1.53909 3.98696 1.40789 4.26839 1.3351 4.81942C1.26005 5.38813 1.2581 6.14456 1.2581 7.23404C1.2581 8.32315 1.26019 9.07852 1.3351 9.64703C1.4078 10.1979 1.53923 10.4794 1.73153 10.6758C1.92264 10.8705 2.19382 11.0037 2.72916 11.0771C3.28442 11.1532 4.02414 11.1541 5.09465 11.1541H5.917C6.2641 11.1541 6.54554 11.4362 6.54605 11.7832C6.54605 12.1306 6.26442 12.4122 5.917 12.4122H5.09465C4.06037 12.4122 3.2193 12.4143 2.55879 12.3238C1.87908 12.2306 1.29657 12.0286 0.833821 11.5571C0.373204 11.0874 0.177475 10.4991 0.0868238 9.81248C-0.00152821 9.1425 1.23517e-06 8.28861 1.76409e-06 7.23404C1.17258e-06 6.17985 -0.00150333 5.32563 0.0868238 4.65561C0.177517 3.96886 0.372906 3.37913 0.833821 2.90935C1.29655 2.43807 1.87918 2.23585 2.55879 2.1427C2.72574 2.11983 2.90425 2.10285 3.09447 2.09028C3.20631 1.74399 3.30813 1.44097 3.41882 1.19421C3.55832 0.883464 3.73704 0.600499 4.02822 0.383334L4.25264 0.242454C4.48219 0.123552 4.72652 0.0658331 4.97834 0.0360477C5.29658 -0.00151333 5.68437 8.28559e-06 6.12833 8.61634e-06H6.28231ZM6.12833 1.2581C5.65432 1.2581 5.35327 1.25908 5.12578 1.28595C4.91564 1.31081 4.83315 1.35119 4.78013 1.39079C4.72529 1.43181 4.65748 1.50525 4.56553 1.71023C4.52176 1.80785 4.47909 1.92185 4.4312 2.05915C4.64283 2.05831 4.86393 2.05424 5.09465 2.05424H7.32745C7.55404 2.05424 7.77131 2.05835 7.97944 2.05915C7.93123 1.92197 7.88887 1.80786 7.84511 1.71023C7.75289 1.50452 7.68692 1.4317 7.63215 1.39079C7.57859 1.351 7.49582 1.3107 7.2865 1.28595C7.05889 1.25908 6.757 1.2581 6.28231 1.2581H6.12833Z"/></svg>