<svg class="svgicon svgicon-prev" xmlns="http://www.w3.org/2000/svg" width="34" height="28" viewBox="0 0 34 28"><path d="M3.23793 16.6114C1.89666 16.6114 0.809345 15.5448 0.809345 14.229C0.809345 12.9132 1.89666 11.8466 3.23793 11.8466L31.5714 11.8466C32.9127 11.8466 34 12.9132 34 14.229C34 15.5448 32.9127 16.6114 31.5714 16.6114L3.23793 16.6114Z"/><path d="M15.4789 27.0312C14.5305 27.9616 12.9931 27.9616 12.0447 27.0312L0.711315 15.9134C-0.237106 14.983 -0.237106 13.475 0.711315 12.5446L12.0447 1.42679C12.9931 0.49641 14.5305 0.49641 15.4789 1.42679C16.4273 2.35717 16.4273 3.86525 15.4789 4.79563L5.86257 14.229L15.4789 23.6624C16.4273 24.5928 16.4273 26.1008 15.4789 27.0312Z"/></svg>