<svg class="svgicon svgicon-next" xmlns="http://www.w3.org/2000/svg" width="34" height="29" viewBox="0 0 34 29"><path d="M30.7621 11.7584C32.1033 11.7584 33.1907 12.8645 33.1907 14.229C33.1907 15.5935 32.1033 16.6996 30.7621 16.6996H2.42858C1.08731 16.6996 0 15.5935 0 14.229C0 12.8645 1.08731 11.7584 2.42858 11.7584H30.7621Z"/><path d="M18.5211 0.952632C19.4695 -0.0122055 21.0069 -0.0122055 21.9553 0.952632L33.2887 12.4822C34.2371 13.447 34.2371 15.011 33.2887 15.9758L21.9553 27.5054C21.0069 28.4702 19.4695 28.4702 18.5211 27.5054C17.5727 26.5405 17.5727 24.9766 18.5211 24.0118L28.1374 14.229L18.5211 4.44624C17.5727 3.48141 17.5727 1.91747 18.5211 0.952632Z"/></svg>