<svg class="svgicon svgicon-barcode" xmlns="http://www.w3.org/2000/svg" width="94" height="28" viewBox="0 0 94 28"><path d="M89.25 27.5H93.833V0H89.25V27.5ZM84.666 27.5H86.958V0H84.666V27.5ZM75.5 27.5H82.375V0H75.5V27.5ZM70.916 27.5H73.208V0H70.916V27.5ZM61.75 27.5H66.333V0H61.75V27.5ZM52.583 27.5H59.458V0H52.583V27.5ZM48 27.5H50.291V0H48V27.5ZM41.25 27.5H45.833V0H41.25V27.5ZM36.666 27.5H38.958V0H36.666V27.5ZM27.5 27.5H34.375V0H27.5V27.5ZM22.916 27.5H25.208V0H22.916V27.5ZM13.75 27.5H18.333V0H13.75V27.5ZM4.58301 27.5H11.458V0H4.58301V27.5ZM0 27.5H2.29102V0H0V27.5Z"/></svg>