<svg class="svgicon svgicon-barcode" xmlns="http://www.w3.org/2000/svg" width="95" height="28" viewBox="0 0 95 28"><path d="M4.58301 27.5H0V0H4.58301V27.5ZM9.16699 27.5H6.875V0H9.16699V27.5ZM18.333 27.5H11.458V0H18.333V27.5ZM22.917 27.5H20.625V0H22.917V27.5ZM32.083 27.5H27.5V0H32.083V27.5ZM41.25 27.5H34.375V0H41.25V27.5ZM45.833 27.5H43.542V0H45.833V27.5ZM51.291 0V27.5H49V0H51.291ZM60.458 0V27.5H53.583V0H60.458ZM67.333 0V27.5H62.75V0H67.333ZM74.208 0V27.5H71.916V0H74.208ZM83.375 0V27.5H76.5V0H83.375ZM87.958 0V27.5H85.666V0H87.958ZM94.833 0V27.5H90.25V0H94.833Z"/></svg>