<svg class="svgicon svgicon-barcode" xmlns="http://www.w3.org/2000/svg" width="95" height="28" viewBox="0 0 95 28"><path d="M90.25 27.5H94.833V0H90.25V27.5ZM85.666 27.5H87.958V0H85.666V27.5ZM76.5 27.5H83.375V0H76.5V27.5ZM71.916 27.5H74.208V0H71.916V27.5ZM62.75 27.5H67.333V0H62.75V27.5ZM53.583 27.5H60.458V0H53.583V27.5ZM49 27.5H51.291V0H49V27.5ZM43.542 0V27.5H45.833V0H43.542ZM34.375 0V27.5H41.25V0H34.375ZM27.5 0V27.5H32.083V0H27.5ZM20.625 0V27.5H22.917V0H20.625ZM11.458 0V27.5H18.333V0H11.458ZM6.875 0V27.5H9.16699V0H6.875ZM0 0V27.5H4.58301V0H0Z"/></svg>