<svg class="svgicon svgicon-barcode" xmlns="http://www.w3.org/2000/svg" width="94" height="28" viewBox="0 0 94 28"><path d="M0 0H4.58333V27.5H0V0ZM6.875 0H9.16667V27.5H6.875V0ZM11.4583 0H18.3333V27.5H11.4583V0ZM20.625 0H22.9167V27.5H20.625V0ZM27.5 0H32.0833V27.5H27.5V0ZM34.375 0H41.25V27.5H34.375V0ZM43.5417 0H45.8333V27.5H43.5417V0Z"/>
<path d="M48 0H52.5833V27.5H48V0ZM54.875 0H57.1667V27.5H54.875V0ZM59.4583 0H66.3333V27.5H59.4583V0ZM68.625 0H70.9167V27.5H68.625V0ZM75.5 0H80.0833V27.5H75.5V0ZM82.375 0H89.25V27.5H82.375V0ZM91.5417 0H93.8333V27.5H91.5417V0Z"/></svg>