<svg width="36" height="36" viewBox="0 0 36 36" fill="none" xmlns="http://www.w3.org/2000/svg">
<path d="M0 9.81818H2.18182V12H3.27273V8.72727H5.45455V9.81818H6.54545V10.9091H5.45455V12H4.36364V13.0909H5.45455V14.1818H4.36364V16.3636H3.27273V13.0909H1.09091V10.9091H0V9.81818ZM0 14.1818H2.18182V15.2727H0V14.1818ZM0 16.3636H1.09091V17.4545H0V16.3636ZM0 20.7273H1.09091V22.9091H2.18182V24H1.09091V26.1818H2.18182V25.0909H3.27273V27.2727H0V20.7273ZM1.09091 17.4545H2.18182V18.5455H3.27273V20.7273H4.36364V18.5455H5.45455V21.8182H7.63636V20.7273H8.72727V22.9091H2.18182V20.7273H1.09091V17.4545ZM2.18182 16.3636H3.27273V17.4545H2.18182V16.3636ZM3.27273 17.4545H4.36364V18.5455H3.27273V17.4545ZM4.36364 16.3636H5.45455V17.4545H4.36364V16.3636ZM4.36364 25.0909H5.45455V26.1818H4.36364V25.0909ZM5.45455 14.1818H6.54545V15.2727H5.45455V14.1818ZM5.45455 24H8.72727V25.0909H5.45455V24ZM5.45455 26.1818H7.63636V27.2727H5.45455V26.1818ZM6.54545 8.72727H8.72727V9.81818H6.54545V8.72727ZM6.54545 10.9091H7.63636V12H6.54545V10.9091ZM6.54545 13.0909H7.63636V14.1818H6.54545V13.0909ZM6.54545 15.2727H8.72727V16.3636H10.9091V17.4545H12V19.6364H10.9091V20.7273H12V22.9091H10.9091V21.8182H9.81818V20.7273H8.72727V19.6364H7.63636V18.5455H6.54545V17.4545H7.63636V16.3636H6.54545V15.2727ZM6.54545 19.6364H7.63636V20.7273H6.54545V19.6364ZM8.72727 2.18182H9.81818V4.36364H8.72727V2.18182ZM8.72727 6.54545H9.81818V7.63636H8.72727V6.54545ZM8.72727 9.81818H9.81818V8.72727H12V9.81818H10.9091V10.9091H9.81818V12H8.72727V9.81818ZM8.72727 13.0909H9.81818V12H10.9091V10.9091H12V9.81818H14.1818V7.63636H15.2727V9.81818H16.3636V7.63636H17.4545V8.72727H18.5455V9.81818H19.6364V8.72727H21.8182V9.81818H20.7273V10.9091H24V12H21.8182V13.0909H25.0909V14.1818H26.1818V13.0909H27.2727V14.1818H28.3636V15.2727H29.4545V16.3636H27.2727V15.2727H22.9091V14.1818H21.8182V16.3636H20.7273V17.4545H17.4545V15.2727H18.5455V16.3636H19.6364V15.2727H20.7273V14.1818H19.6364V13.0909H20.7273V12H19.6364V10.9091H17.4545V12H19.6364V13.0909H17.4545V14.1818H16.3636V16.3636H14.1818V14.1818H13.0909V16.3636H10.9091V15.2727H9.81818V14.1818H8.72727V13.0909ZM8.72727 22.9091H9.81818V24H8.72727V22.9091ZM8.72727 26.1818H9.81818V27.2727H10.9091V30.5455H9.81818V29.4545H8.72727V26.1818ZM8.72727 30.5455H9.81818V31.6364H10.9091V32.7273H8.72727V30.5455ZM9.81818 0H10.9091V1.09091H12V0H13.0909V2.18182H14.1818V0H15.2727V4.36364H13.0909V3.27273H12V4.36364H10.9091V2.18182H9.81818V0ZM9.81818 4.36364H10.9091V5.45455H9.81818V4.36364ZM10.9091 13.0909V14.1818H12V13.0909H16.3636V10.9091H15.2727V12H14.1818V10.9091H13.0909V12H12V13.0909H10.9091ZM9.81818 24H12V25.0909H13.0909V26.1818H9.81818V24ZM9.81818 33.8182H10.9091V34.9091H14.1818V33.8182H15.2727V31.6364H14.1818V30.5455H15.2727V29.4545H14.1818V28.3636H13.0909V27.2727H15.2727V26.1818H16.3636V29.4545H18.5455V30.5455H17.4545V31.6364H16.3636V32.7273H17.4545V33.8182H16.3636V34.9091H17.4545V36H9.81818V33.8182ZM10.9091 5.45455H12V7.63636H10.9091V5.45455ZM10.9091 32.7273H12V33.8182H10.9091V32.7273ZM12 7.63636H13.0909V8.72727H12V7.63636ZM12 22.9091H13.0909V20.7273H16.3636V21.8182H17.4545V20.7273H19.6364V21.8182H18.5455V24H16.3636V22.9091H15.2727V21.8182H14.1818V25.0909H13.0909V24H12V22.9091ZM12 28.3636H13.0909V29.4545H12V28.3636ZM12 30.5455H13.0909V31.6364H14.1818V33.8182H13.0909V32.7273H12V30.5455ZM13.0909 5.45455H14.1818V7.63636H13.0909V5.45455ZM13.0909 16.3636H14.1818V18.5455H16.3636V19.6364H13.0909V16.3636ZM13.0909 29.4545H14.1818V30.5455H13.0909V29.4545ZM15.2727 4.36364H16.3636V1.09091H17.4545V0H19.6364V5.45455H18.5455V4.36364H17.4545V5.45455H18.5455V7.63636H17.4545V6.54545H16.3636V7.63636H15.2727V4.36364ZM15.2727 24H16.3636V25.0909H15.2727V24ZM17.4545 2.18182V3.27273H18.5455V2.18182H17.4545ZM16.3636 19.6364H17.4545V20.7273H16.3636V19.6364ZM16.3636 25.0909H18.5455V26.1818H20.7273V28.3636H21.8182V29.4545H18.5455V28.3636H19.6364V27.2727H17.4545V26.1818H16.3636V25.0909ZM17.4545 18.5455H18.5455V19.6364H17.4545V18.5455ZM17.4545 31.6364H18.5455V30.5455H21.8182V31.6364H19.6364V33.8182H20.7273V34.9091H18.5455V32.7273H17.4545V31.6364ZM19.6364 6.54545H20.7273V7.63636H19.6364V6.54545ZM19.6364 18.5455H20.7273V20.7273H19.6364V18.5455ZM19.6364 22.9091H21.8182V24H20.7273V25.0909H19.6364V22.9091ZM20.7273 0H22.9091V1.09091H24V0H25.0909V2.18182H24V3.27273H25.0909V2.18182H26.1818V0H27.2727V4.36364H26.1818V5.45455H25.0909V7.63636H24V6.54545H22.9091V5.45455H21.8182V4.36364H22.9091V2.18182H21.8182V1.09091H20.7273V0ZM20.7273 2.18182H21.8182V3.27273H20.7273V2.18182ZM20.7273 5.45455H21.8182V6.54545H20.7273V5.45455ZM20.7273 20.7273H22.9091V22.9091H21.8182V21.8182H20.7273V20.7273ZM20.7273 25.0909H21.8182V24H22.9091V22.9091H25.0909V24H26.1818V25.0909H27.2727V26.1818H29.4545V25.0909H28.3636V21.8182H30.5455V22.9091H29.4545V24H30.5455V25.0909H31.6364V28.3636H32.7273V29.4545H34.9091V32.7273H33.8182V30.5455H32.7273V31.6364H30.5455V32.7273H29.4545V31.6364H28.3636V32.7273H27.2727V31.6364H26.1818V34.9091H28.3636V36H25.0909V34.9091H24V33.8182H25.0909V32.7273H22.9091V29.4545H25.0909V30.5455H26.1818V29.4545H25.0909V28.3636H21.8182V26.1818H20.7273V25.0909ZM21.8182 6.54545H22.9091V8.72727H21.8182V6.54545ZM21.8182 18.5455H22.9091V19.6364H21.8182V18.5455ZM22.9091 25.0909V27.2727H25.0909V25.0909H22.9091ZM21.8182 34.9091H22.9091V36H21.8182V34.9091ZM22.9091 19.6364H24V20.7273H22.9091V19.6364ZM24 8.72727H25.0909V7.63636H26.1818V12H25.0909V9.81818H24V8.72727ZM24 18.5455H25.0909V19.6364H24V18.5455ZM25.0909 19.6364H26.1818V20.7273H28.3636V21.8182H25.0909V19.6364ZM26.1818 5.45455H27.2727V7.63636H26.1818V5.45455ZM26.1818 16.3636H27.2727V17.4545H26.1818V16.3636ZM26.1818 18.5455H27.2727V19.6364H26.1818V18.5455ZM26.1818 22.9091H27.2727V24H26.1818V22.9091ZM27.2727 27.2727V30.5455H30.5455V27.2727H27.2727ZM27.2727 9.81818H28.3636V12H27.2727V9.81818ZM27.2727 17.4545H30.5455V15.2727H31.6364V17.4545H32.7273V16.3636H34.9091V17.4545H33.8182V18.5455H32.7273V19.6364H33.8182V21.8182H32.7273V22.9091H31.6364V21.8182H30.5455V20.7273H31.6364V19.6364H28.3636V18.5455H27.2727V17.4545ZM28.3636 12H29.4545V9.81818H31.6364V8.72727H33.8182V10.9091H36V14.1818H34.9091V15.2727H32.7273V14.1818H33.8182V13.0909H34.9091V12H33.8182V13.0909H32.7273V12H31.6364V10.9091H30.5455V12H31.6364V13.0909H32.7273V14.1818H30.5455V13.0909H29.4545V14.1818H28.3636V12ZM28.3636 28.3636H29.4545V29.4545H28.3636V28.3636ZM30.5455 22.9091H31.6364V24H30.5455V22.9091ZM32.7273 24H33.8182V21.8182H34.9091V22.9091H36V25.0909H34.9091V26.1818H32.7273V24ZM32.7273 27.2727H34.9091V28.3636H32.7273V27.2727ZM33.8182 18.5455H36V21.8182H34.9091V19.6364H33.8182V18.5455Z" fill="#231F20"/>
<path d="M0 0H7.63636V7.63636H0V0ZM1.09091 1.09091V6.54545H6.54545V1.09091H1.09091Z" fill="#231F20"/>
<path d="M2.18182 2.18182H5.45455V5.45455H2.18182V2.18182Z" fill="#231F20"/>
<path d="M28.3636 0H36V7.63636H28.3636V0ZM29.4545 1.09091V6.54545H34.9091V1.09091H29.4545Z" fill="#231F20"/>
<path d="M30.5455 2.18182H33.8182V5.45455H30.5455V2.18182Z" fill="#231F20"/>
<path d="M0 28.3636H7.63636V36H0V28.3636ZM1.09091 29.4545V34.9091H6.54545V29.4545H1.09091Z" fill="#231F20"/>
<path d="M2.18182 30.5455H5.45455V33.8182H2.18182V30.5455Z" fill="#231F20"/>
</svg>
